<svg width="31" height="57" viewBox="0 0 31 57" fill="none" xmlns="http://www.w3.org/2000/svg">
<path d="M14.1323 45.084H13.0755C13.013 44.78 12.9036 44.513 12.7473 44.2828C12.5939 44.0527 12.4064 43.8596 12.1848 43.7033C11.9661 43.5442 11.7232 43.4249 11.4561 43.3453C11.1891 43.2658 10.9107 43.226 10.6209 43.226C10.0925 43.226 9.61381 43.3596 9.18484 43.6266C8.7587 43.8936 8.41921 44.2871 8.16637 44.807C7.91637 45.3269 7.79137 45.9647 7.79137 46.7203C7.79137 47.476 7.91637 48.1138 8.16637 48.6337C8.41921 49.1536 8.7587 49.5471 9.18484 49.8141C9.61381 50.0811 10.0925 50.2147 10.6209 50.2147C10.9107 50.2147 11.1891 50.1749 11.4561 50.0953C11.7232 50.0158 11.9661 49.8979 12.1848 49.7417C12.4064 49.5826 12.5939 49.388 12.7473 49.1578C12.9036 48.9249 13.013 48.6578 13.0755 48.3567H14.1323C14.0527 48.8027 13.9078 49.2019 13.6976 49.5542C13.4874 49.9064 13.226 50.2061 12.9135 50.4533C12.601 50.6976 12.2502 50.8837 11.861 51.0115C11.4746 51.1394 11.0613 51.2033 10.6209 51.2033C9.8766 51.2033 9.21467 51.0215 8.63512 50.6578C8.05558 50.2942 7.59961 49.7772 7.26722 49.1067C6.93484 48.4363 6.76864 47.6408 6.76864 46.7203C6.76864 45.7999 6.93484 45.0044 7.26722 44.334C7.59961 43.6635 8.05558 43.1465 8.63512 42.7828C9.21467 42.4192 9.8766 42.2374 10.6209 42.2374C11.0613 42.2374 11.4746 42.3013 11.861 42.4292C12.2502 42.557 12.601 42.7445 12.9135 42.9917C13.226 43.236 13.4874 43.5343 13.6976 43.8865C13.9078 44.236 14.0527 44.6351 14.1323 45.084ZM17.6298 51.2374C17.215 51.2374 16.8386 51.1593 16.5005 51.003C16.1625 50.8439 15.894 50.6152 15.6951 50.3169C15.4963 50.0158 15.3968 49.6522 15.3968 49.226C15.3968 48.851 15.4707 48.5471 15.6184 48.3141C15.7662 48.0783 15.9636 47.8936 16.2108 47.7601C16.4579 47.6266 16.7306 47.5272 17.0289 47.4618C17.3301 47.3936 17.6326 47.3397 17.9366 47.2999C18.3343 47.2488 18.6568 47.2104 18.9039 47.1848C19.1539 47.1564 19.3358 47.1096 19.4494 47.0442C19.5659 46.9789 19.6241 46.8652 19.6241 46.7033V46.6692C19.6241 46.2488 19.5091 45.9221 19.2789 45.6891C19.0517 45.4561 18.7065 45.3397 18.2434 45.3397C17.7633 45.3397 17.3869 45.4448 17.1142 45.655C16.8414 45.8652 16.6497 46.0897 16.5389 46.3283L15.5843 45.9874C15.7548 45.5897 15.9821 45.28 16.2662 45.0584C16.5531 44.834 16.8656 44.6777 17.2037 44.5897C17.5446 44.4988 17.8798 44.4533 18.2093 44.4533C18.4196 44.4533 18.661 44.4789 18.9338 44.53C19.2093 44.5783 19.475 44.6792 19.7306 44.8326C19.9892 44.986 20.2037 45.2175 20.3741 45.5272C20.5446 45.8368 20.6298 46.2516 20.6298 46.7715V51.084H19.6241V50.1976H19.573C19.5048 50.3397 19.3912 50.4917 19.2321 50.6536C19.073 50.8155 18.8613 50.9533 18.5971 51.0669C18.3329 51.1806 18.0105 51.2374 17.6298 51.2374ZM17.7832 50.334C18.1809 50.334 18.5162 50.2559 18.7889 50.0996C19.0645 49.9434 19.2718 49.7417 19.411 49.4945C19.5531 49.2473 19.6241 48.9874 19.6241 48.7147V47.7942C19.5815 47.8453 19.4877 47.8922 19.3429 47.9348C19.2008 47.9746 19.036 48.0101 18.8485 48.0414C18.6639 48.0698 18.4835 48.0953 18.3074 48.1181C18.1341 48.138 17.9934 48.155 17.8855 48.1692C17.6241 48.2033 17.3798 48.2587 17.1525 48.3354C16.9281 48.4093 16.7463 48.5215 16.6071 48.6721C16.4707 48.8198 16.4025 49.0215 16.4025 49.2772C16.4025 49.6266 16.5318 49.8908 16.7903 50.0698C17.0517 50.2459 17.3826 50.334 17.7832 50.334ZM22.4654 51.084V44.5385H23.437V45.5272H23.5051C23.6245 45.2033 23.8404 44.9405 24.1529 44.7388C24.4654 44.5371 24.8176 44.4363 25.2097 44.4363C25.2836 44.4363 25.3759 44.4377 25.4867 44.4405C25.5975 44.4434 25.6813 44.4476 25.7381 44.4533V45.476C25.704 45.4675 25.6259 45.4547 25.5037 45.4377C25.3844 45.4178 25.258 45.4078 25.1245 45.4078C24.8063 45.4078 24.5222 45.4746 24.2722 45.6081C24.025 45.7388 23.829 45.9206 23.6841 46.1536C23.5421 46.3837 23.4711 46.6465 23.4711 46.9419V51.084H22.4654ZM30.187 44.5385V45.3908H26.7949V44.5385H30.187ZM27.7836 42.9703H28.7892V49.209C28.7892 49.4931 28.8304 49.7061 28.9128 49.8482C28.998 49.9874 29.106 50.0811 29.2367 50.1294C29.3702 50.1749 29.5108 50.1976 29.6586 50.1976C29.7694 50.1976 29.8603 50.1919 29.9313 50.1806C30.0023 50.1664 30.0591 50.155 30.1017 50.1465L30.3063 51.0499C30.2381 51.0755 30.1429 51.101 30.0208 51.1266C29.8986 51.155 29.7438 51.1692 29.5563 51.1692C29.2722 51.1692 28.9938 51.1081 28.7211 50.986C28.4512 50.8638 28.2267 50.6777 28.0478 50.4277C27.8716 50.1777 27.7836 49.8624 27.7836 49.4817V42.9703Z" fill="#737373"/>
<path d="M24.4491 29.7302C25.6825 29.7302 26.6824 28.7303 26.6824 27.497C26.6824 26.2636 25.6825 25.2637 24.4491 25.2637C23.2157 25.2637 22.2158 26.2636 22.2158 27.497C22.2158 28.7303 23.2157 29.7302 24.4491 29.7302Z" fill="black"/>
<path d="M11.0487 29.7302C12.2821 29.7302 13.282 28.7303 13.282 27.497C13.282 26.2636 12.2821 25.2637 11.0487 25.2637C9.8153 25.2637 8.81543 26.2636 8.81543 27.497C8.81543 28.7303 9.8153 29.7302 11.0487 29.7302Z" fill="black"/>
<path d="M27.055 22.6576H8.38474C8.20607 22.6576 8.05719 22.5236 8.01252 22.3598L4.03727 1.38177C4.00749 1.20311 3.84372 1.08398 3.66506 1.08398H1" stroke="black" stroke-width="1.5" stroke-miterlimit="10" stroke-linecap="round"/>
<path d="M7.70092 16.7016H28.2174C28.4109 16.7016 28.5598 16.5676 28.5896 16.374L29.9742 5.95204C30.004 5.72871 29.8253 5.53516 29.602 5.53516H5.83984" stroke="black" stroke-width="1.5" stroke-miterlimit="10" stroke-linecap="round"/>
</svg>
