<svg width="58" height="57" viewBox="0 0 58 57" fill="none" xmlns="http://www.w3.org/2000/svg">
<path d="M1.29315 42.3567H2.55451L5.52042 49.601H5.62269L8.5886 42.3567H9.84996V51.084H8.86133V44.4533H8.7761L6.04883 51.084H5.09428L2.36701 44.4533H2.28178V51.084H1.29315V42.3567ZM14.5769 51.2203C13.9462 51.2203 13.4022 51.0811 12.9448 50.8027C12.4902 50.5215 12.1394 50.1294 11.8922 49.6266C11.6479 49.1209 11.5257 48.5328 11.5257 47.8624C11.5257 47.1919 11.6479 46.601 11.8922 46.0897C12.1394 45.5755 12.4831 45.1749 12.9235 44.888C13.3667 44.5982 13.8837 44.4533 14.4746 44.4533C14.8155 44.4533 15.1522 44.5101 15.4846 44.6238C15.8169 44.7374 16.1195 44.9221 16.3922 45.1777C16.665 45.4306 16.8823 45.7658 17.0442 46.1834C17.2061 46.601 17.2871 47.1152 17.2871 47.726V48.1522H12.2417V47.2828H16.2644C16.2644 46.9135 16.1905 46.584 16.0428 46.2942C15.8979 46.0044 15.6905 45.7757 15.4206 45.6081C15.1536 45.4405 14.8382 45.3567 14.4746 45.3567C14.074 45.3567 13.7275 45.4561 13.4348 45.655C13.1451 45.851 12.9221 46.1067 12.7658 46.4221C12.6096 46.7374 12.5314 47.0755 12.5314 47.4363V48.0158C12.5314 48.5101 12.6167 48.9292 12.7871 49.2729C12.9604 49.6138 13.2005 49.8738 13.5073 50.0527C13.8141 50.2289 14.1706 50.3169 14.5769 50.3169C14.8411 50.3169 15.0797 50.28 15.2928 50.2061C15.5087 50.1294 15.6948 50.0158 15.851 49.8652C16.0073 49.7118 16.128 49.5215 16.2132 49.2942L17.1848 49.5669C17.0826 49.8965 16.9107 50.1863 16.6692 50.4363C16.4277 50.6834 16.1294 50.8766 15.7743 51.0158C15.4192 51.1522 15.0201 51.2203 14.5769 51.2203ZM23.4533 46.0044L22.5499 46.2601C22.4931 46.1096 22.4093 45.9632 22.2985 45.8212C22.1905 45.6763 22.0428 45.557 21.8553 45.4632C21.6678 45.3695 21.4277 45.3226 21.1351 45.3226C20.7346 45.3226 20.4007 45.415 20.1337 45.5996C19.8695 45.7814 19.7374 46.013 19.7374 46.2942C19.7374 46.5442 19.8283 46.7417 20.0101 46.8865C20.1919 47.0314 20.476 47.1522 20.8624 47.2488L21.834 47.4874C22.4192 47.6294 22.8553 47.8468 23.1422 48.1394C23.4292 48.4292 23.5726 48.8027 23.5726 49.2601C23.5726 49.6351 23.4647 49.9703 23.2488 50.2658C23.0357 50.5613 22.7374 50.7942 22.3539 50.9647C21.9703 51.1351 21.5243 51.2203 21.0158 51.2203C20.3482 51.2203 19.7956 51.0755 19.3581 50.7857C18.9206 50.4959 18.6436 50.0726 18.5272 49.5158L19.4817 49.2772C19.5726 49.6294 19.7445 49.8936 19.9973 50.0698C20.253 50.2459 20.5868 50.334 20.9988 50.334C21.4675 50.334 21.8397 50.2346 22.1152 50.0357C22.3936 49.834 22.5328 49.5925 22.5328 49.3113C22.5328 49.084 22.4533 48.8936 22.2942 48.7402C22.1351 48.584 21.8908 48.4675 21.5613 48.3908L20.4703 48.1351C19.8709 47.9931 19.4306 47.7729 19.1493 47.4746C18.8709 47.1735 18.7317 46.7971 18.7317 46.3453C18.7317 45.976 18.8354 45.6493 19.0428 45.3652C19.253 45.0811 19.5385 44.8581 19.8993 44.6962C20.263 44.5343 20.6749 44.4533 21.1351 44.4533C21.7828 44.4533 22.2914 44.5953 22.6607 44.8794C23.0328 45.1635 23.2971 45.5385 23.4533 46.0044ZM29.7228 46.0044L28.8194 46.2601C28.7626 46.1096 28.6788 45.9632 28.568 45.8212C28.46 45.6763 28.3123 45.557 28.1248 45.4632C27.9373 45.3695 27.6973 45.3226 27.4047 45.3226C27.0041 45.3226 26.6703 45.415 26.4032 45.5996C26.139 45.7814 26.0069 46.013 26.0069 46.2942C26.0069 46.5442 26.0978 46.7417 26.2797 46.8865C26.4615 47.0314 26.7456 47.1522 27.1319 47.2488L28.1035 47.4874C28.6887 47.6294 29.1248 47.8468 29.4118 48.1394C29.6987 48.4292 29.8422 48.8027 29.8422 49.2601C29.8422 49.6351 29.7342 49.9703 29.5183 50.2658C29.3052 50.5613 29.0069 50.7942 28.6234 50.9647C28.2399 51.1351 27.7939 51.2203 27.2853 51.2203C26.6177 51.2203 26.0652 51.0755 25.6277 50.7857C25.1902 50.4959 24.9132 50.0726 24.7967 49.5158L25.7512 49.2772C25.8422 49.6294 26.014 49.8936 26.2669 50.0698C26.5225 50.2459 26.8564 50.334 27.2683 50.334C27.737 50.334 28.1092 50.2346 28.3848 50.0357C28.6632 49.834 28.8024 49.5925 28.8024 49.3113C28.8024 49.084 28.7228 48.8936 28.5637 48.7402C28.4047 48.584 28.1603 48.4675 27.8308 48.3908L26.7399 48.1351C26.1404 47.9931 25.7001 47.7729 25.4189 47.4746C25.1404 47.1735 25.0012 46.7971 25.0012 46.3453C25.0012 45.976 25.1049 45.6493 25.3123 45.3652C25.5225 45.0811 25.8081 44.8581 26.1689 44.6962C26.5325 44.5343 26.9444 44.4533 27.4047 44.4533C28.0524 44.4533 28.5609 44.5953 28.9302 44.8794C29.3024 45.1635 29.5666 45.5385 29.7228 46.0044ZM33.2821 51.2374C32.8674 51.2374 32.4909 51.1593 32.1529 51.003C31.8148 50.8439 31.5463 50.6152 31.3475 50.3169C31.1486 50.0158 31.0492 49.6522 31.0492 49.226C31.0492 48.851 31.123 48.5471 31.2708 48.3141C31.4185 48.0783 31.6159 47.8936 31.8631 47.7601C32.1103 47.6266 32.383 47.5272 32.6813 47.4618C32.9824 47.3936 33.285 47.3397 33.589 47.2999C33.9867 47.2488 34.3091 47.2104 34.5563 47.1848C34.8063 47.1564 34.9881 47.1096 35.1017 47.0442C35.2182 46.9789 35.2765 46.8652 35.2765 46.7033V46.6692C35.2765 46.2488 35.1614 45.9221 34.9313 45.6891C34.704 45.4561 34.3588 45.3397 33.8958 45.3397C33.4157 45.3397 33.0392 45.4448 32.7665 45.655C32.4938 45.8652 32.302 46.0897 32.1912 46.3283L31.2367 45.9874C31.4071 45.5897 31.6344 45.28 31.9185 45.0584C32.2054 44.834 32.5179 44.6777 32.856 44.5897C33.1969 44.4988 33.5321 44.4533 33.8617 44.4533C34.0719 44.4533 34.3134 44.4789 34.5861 44.53C34.8617 44.5783 35.1273 44.6792 35.383 44.8326C35.6415 44.986 35.856 45.2175 36.0265 45.5272C36.1969 45.8368 36.2821 46.2516 36.2821 46.7715V51.084H35.2765V50.1976H35.2253C35.1571 50.3397 35.0435 50.4917 34.8844 50.6536C34.7253 50.8155 34.5137 50.9533 34.2495 51.0669C33.9853 51.1806 33.6628 51.2374 33.2821 51.2374ZM33.4355 50.334C33.8333 50.334 34.1685 50.2559 34.4412 50.0996C34.7168 49.9434 34.9242 49.7417 35.0634 49.4945C35.2054 49.2473 35.2765 48.9874 35.2765 48.7147V47.7942C35.2338 47.8453 35.1401 47.8922 34.9952 47.9348C34.8532 47.9746 34.6884 48.0101 34.5009 48.0414C34.3162 48.0698 34.1358 48.0953 33.9597 48.1181C33.7864 48.138 33.6458 48.155 33.5378 48.1692C33.2765 48.2033 33.0321 48.2587 32.8049 48.3354C32.5804 48.4093 32.3986 48.5215 32.2594 48.6721C32.123 48.8198 32.0549 49.0215 32.0549 49.2772C32.0549 49.6266 32.1841 49.8908 32.4426 50.0698C32.704 50.2459 33.035 50.334 33.4355 50.334ZM40.7598 53.6749C40.274 53.6749 39.8564 53.6124 39.5069 53.4874C39.1575 53.3652 38.8663 53.2033 38.6333 53.0016C38.4032 52.8027 38.22 52.5897 38.0836 52.3624L38.8848 51.7999C38.9757 51.9192 39.0907 52.0556 39.2299 52.209C39.3691 52.3652 39.5595 52.5002 39.801 52.6138C40.0453 52.7303 40.3649 52.7885 40.7598 52.7885C41.2882 52.7885 41.7243 52.6607 42.068 52.405C42.4118 52.1493 42.5836 51.7488 42.5836 51.2033V49.8738H42.4984C42.4245 49.9931 42.3194 50.1408 42.1831 50.3169C42.0495 50.4902 41.8564 50.6451 41.6035 50.7814C41.3535 50.915 41.0154 50.9817 40.5893 50.9817C40.0609 50.9817 39.5865 50.8567 39.166 50.6067C38.7484 50.3567 38.4174 49.9931 38.1731 49.5158C37.9316 49.0385 37.8109 48.459 37.8109 47.7772C37.8109 47.1067 37.9288 46.5229 38.1646 46.0257C38.4004 45.5257 38.7285 45.1394 39.149 44.8667C39.5694 44.5911 40.0552 44.4533 40.6064 44.4533C41.0325 44.4533 41.3706 44.5243 41.6206 44.6664C41.8734 44.8056 42.0666 44.9647 42.2001 45.1436C42.3365 45.3198 42.4416 45.4647 42.5154 45.5783H42.6177V44.5385H43.5893V51.2715C43.5893 51.834 43.4615 52.2914 43.2058 52.6436C42.9529 52.9988 42.612 53.2587 42.1831 53.4235C41.7569 53.5911 41.2825 53.6749 40.7598 53.6749ZM40.7257 50.0783C41.1291 50.0783 41.47 49.986 41.7484 49.8013C42.0268 49.6167 42.2385 49.351 42.3833 49.0044C42.5282 48.6578 42.6007 48.2431 42.6007 47.7601C42.6007 47.2885 42.5297 46.8723 42.3876 46.5115C42.2456 46.1507 42.0353 45.8681 41.7569 45.6635C41.4785 45.459 41.1348 45.3567 40.7257 45.3567C40.2995 45.3567 39.9444 45.4647 39.6603 45.6806C39.3791 45.8965 39.1674 46.1863 39.0254 46.5499C38.8862 46.9135 38.8166 47.3169 38.8166 47.7601C38.8166 48.2147 38.8876 48.6167 39.0297 48.9661C39.1745 49.3127 39.3876 49.5854 39.6689 49.7843C39.9529 49.9803 40.3052 50.0783 40.7257 50.0783ZM48.1745 51.2203C47.5439 51.2203 46.9998 51.0811 46.5424 50.8027C46.0879 50.5215 45.737 50.1294 45.4899 49.6266C45.2456 49.1209 45.1234 48.5328 45.1234 47.8624C45.1234 47.1919 45.2456 46.601 45.4899 46.0897C45.737 45.5755 46.0808 45.1749 46.5211 44.888C46.9643 44.5982 47.4814 44.4533 48.0723 44.4533C48.4132 44.4533 48.7498 44.5101 49.0822 44.6238C49.4146 44.7374 49.7172 44.9221 49.9899 45.1777C50.2626 45.4306 50.4799 45.7658 50.6419 46.1834C50.8038 46.601 50.8848 47.1152 50.8848 47.726V48.1522H45.8393V47.2828H49.862C49.862 46.9135 49.7882 46.584 49.6404 46.2942C49.4956 46.0044 49.2882 45.7757 49.0183 45.6081C48.7512 45.4405 48.4359 45.3567 48.0723 45.3567C47.6717 45.3567 47.3251 45.4561 47.0325 45.655C46.7427 45.851 46.5197 46.1067 46.3635 46.4221C46.2072 46.7374 46.1291 47.0755 46.1291 47.4363V48.0158C46.1291 48.5101 46.2143 48.9292 46.3848 49.2729C46.5581 49.6138 46.7981 49.8738 47.1049 50.0527C47.4118 50.2289 47.7683 50.3169 48.1745 50.3169C48.4387 50.3169 48.6774 50.28 48.8904 50.2061C49.1064 50.1294 49.2924 50.0158 49.4487 49.8652C49.6049 49.7118 49.7257 49.5215 49.8109 49.2942L50.7825 49.5669C50.6802 49.8965 50.5083 50.1863 50.2669 50.4363C50.0254 50.6834 49.7271 50.8766 49.372 51.0158C49.0169 51.1522 48.6177 51.2203 48.1745 51.2203ZM57.051 46.0044L56.1475 46.2601C56.0907 46.1096 56.0069 45.9632 55.8961 45.8212C55.7882 45.6763 55.6404 45.557 55.4529 45.4632C55.2654 45.3695 55.0254 45.3226 54.7328 45.3226C54.3322 45.3226 53.9984 45.415 53.7314 45.5996C53.4672 45.7814 53.335 46.013 53.335 46.2942C53.335 46.5442 53.426 46.7417 53.6078 46.8865C53.7896 47.0314 54.0737 47.1522 54.46 47.2488L55.4316 47.4874C56.0169 47.6294 56.4529 47.8468 56.7399 48.1394C57.0268 48.4292 57.1703 48.8027 57.1703 49.2601C57.1703 49.6351 57.0623 49.9703 56.8464 50.2658C56.6333 50.5613 56.335 50.7942 55.9515 50.9647C55.568 51.1351 55.122 51.2203 54.6135 51.2203C53.9458 51.2203 53.3933 51.0755 52.9558 50.7857C52.5183 50.4959 52.2413 50.0726 52.1248 49.5158L53.0794 49.2772C53.1703 49.6294 53.3422 49.8936 53.595 50.0698C53.8507 50.2459 54.1845 50.334 54.5964 50.334C55.0652 50.334 55.4373 50.2346 55.7129 50.0357C55.9913 49.834 56.1305 49.5925 56.1305 49.3113C56.1305 49.084 56.051 48.8936 55.8919 48.7402C55.7328 48.584 55.4885 48.4675 55.1589 48.3908L54.068 48.1351C53.4686 47.9931 53.0282 47.7729 52.747 47.4746C52.4686 47.1735 52.3294 46.7971 52.3294 46.3453C52.3294 45.976 52.4331 45.6493 52.6404 45.3652C52.8507 45.0811 53.1362 44.8581 53.497 44.6962C53.8606 44.5343 54.2725 44.4533 54.7328 44.4533C55.3805 44.4533 55.889 44.5953 56.2583 44.8794C56.6305 45.1635 56.8947 45.5385 57.051 46.0044Z" fill="#737373"/>
<path d="M42.8927 1.08398H12.084V29.3254L16.363 25.0464H42.8927V1.08398Z" stroke="black" stroke-width="1.5" stroke-linecap="round" stroke-linejoin="round"/>
</svg>
