<svg width="43" height="62" viewBox="0 0 43 62" fill="none" xmlns="http://www.w3.org/2000/svg">
<path d="M7.1499 6V31.7782L8.09573 34H17.3439L18.7521 31.7782V15.7973H25.9824V31.7782L27.3907 34H36.8069L37.8999 31.7782V6" stroke="#564F4F" stroke-width="3"/>
<path d="M1 16.1395L21.428 2L42 16.1395" stroke="#564F4F" stroke-width="3"/>
<path d="M5.24432 56.084V47.3567H6.30114V51.2431H10.9545V47.3567H12.0114V56.084H10.9545V52.1806H6.30114V56.084H5.24432ZM16.6499 56.2203C16.0589 56.2203 15.5405 56.0797 15.0945 55.7985C14.6513 55.5172 14.3047 55.1238 14.0547 54.6181C13.8075 54.1124 13.6839 53.5215 13.6839 52.8453C13.6839 52.1635 13.8075 51.5684 14.0547 51.0598C14.3047 50.5513 14.6513 50.1564 15.0945 49.8752C15.5405 49.5939 16.0589 49.4533 16.6499 49.4533C17.2408 49.4533 17.7578 49.5939 18.201 49.8752C18.647 50.1564 18.9936 50.5513 19.2408 51.0598C19.4908 51.5684 19.6158 52.1635 19.6158 52.8453C19.6158 53.5215 19.4908 54.1124 19.2408 54.6181C18.9936 55.1238 18.647 55.5172 18.201 55.7985C17.7578 56.0797 17.2408 56.2203 16.6499 56.2203ZM16.6499 55.3169C17.0987 55.3169 17.468 55.2019 17.7578 54.9718C18.0476 54.7417 18.2621 54.4391 18.4013 54.0641C18.5405 53.6891 18.6101 53.2828 18.6101 52.8453C18.6101 52.4078 18.5405 52.0002 18.4013 51.6223C18.2621 51.2445 18.0476 50.9391 17.7578 50.7061C17.468 50.4732 17.0987 50.3567 16.6499 50.3567C16.201 50.3567 15.8317 50.4732 15.5419 50.7061C15.2521 50.9391 15.0376 51.2445 14.8984 51.6223C14.7592 52.0002 14.6896 52.4078 14.6896 52.8453C14.6896 53.2828 14.7592 53.6891 14.8984 54.0641C15.0376 54.4391 15.2521 54.7417 15.5419 54.9718C15.8317 55.2019 16.201 55.3169 16.6499 55.3169ZM21.1509 56.084V49.5385H22.1225V50.5613H22.2077C22.3441 50.2118 22.5643 49.9405 22.8683 49.7473C23.1722 49.5513 23.5373 49.4533 23.9634 49.4533C24.3952 49.4533 24.7546 49.5513 25.0415 49.7473C25.3313 49.9405 25.5572 50.2118 25.7191 50.5613H25.7873C25.9549 50.2232 26.2063 49.9547 26.5415 49.7559C26.8768 49.5542 27.2788 49.4533 27.7475 49.4533C28.3327 49.4533 28.8114 49.6365 29.1836 50.003C29.5558 50.3667 29.7418 50.9334 29.7418 51.7033V56.084H28.7362V51.7033C28.7362 51.2203 28.604 50.8752 28.3398 50.6678C28.0756 50.4604 27.7646 50.3567 27.4066 50.3567C26.9464 50.3567 26.5898 50.4959 26.337 50.7743C26.0842 51.0499 25.9577 51.3993 25.9577 51.8226V56.084H24.935V51.601C24.935 51.2289 24.8143 50.9292 24.5728 50.7019C24.3313 50.4718 24.0202 50.3567 23.6396 50.3567C23.3782 50.3567 23.1339 50.4263 22.9066 50.5655C22.6822 50.7047 22.5004 50.8979 22.3612 51.1451C22.2248 51.3894 22.1566 51.6721 22.1566 51.9931V56.084H21.1509ZM34.3249 56.2203C33.6942 56.2203 33.1502 56.0811 32.6928 55.8027C32.2383 55.5215 31.8874 55.1294 31.6403 54.6266C31.396 54.1209 31.2738 53.5328 31.2738 52.8624C31.2738 52.1919 31.396 51.601 31.6403 51.0897C31.8874 50.5755 32.2312 50.1749 32.6715 49.888C33.1147 49.5982 33.6317 49.4533 34.2227 49.4533C34.5636 49.4533 34.9002 49.5101 35.2326 49.6238C35.565 49.7374 35.8675 49.9221 36.1403 50.1777C36.413 50.4306 36.6303 50.7658 36.7923 51.1834C36.9542 51.601 37.0352 52.1152 37.0352 52.726V53.1522H31.9897V52.2828H36.0124C36.0124 51.9135 35.9386 51.584 35.7908 51.2942C35.646 51.0044 35.4386 50.7757 35.1687 50.6081C34.9016 50.4405 34.5863 50.3567 34.2227 50.3567C33.8221 50.3567 33.4755 50.4561 33.1829 50.655C32.8931 50.851 32.6701 51.1067 32.5138 51.4221C32.3576 51.7374 32.2795 52.0755 32.2795 52.4363V53.0158C32.2795 53.5101 32.3647 53.9292 32.5352 54.2729C32.7085 54.6138 32.9485 54.8738 33.2553 55.0527C33.5621 55.2289 33.9187 55.3169 34.3249 55.3169C34.5891 55.3169 34.8278 55.28 35.0408 55.2061C35.2567 55.1294 35.4428 55.0158 35.5991 54.8652C35.7553 54.7118 35.8761 54.5215 35.9613 54.2942L36.9329 54.5669C36.8306 54.8965 36.6587 55.1863 36.4173 55.4363C36.1758 55.6834 35.8775 55.8766 35.5224 56.0158C35.1673 56.1522 34.7681 56.2203 34.3249 56.2203Z" fill="#737373"/>
</svg>
