<svg width="14" height="7" viewBox="0 0 14 7" fill="none" xmlns="http://www.w3.org/2000/svg">
<path fill-rule="evenodd" clip-rule="evenodd" d="M13.8039 0.362255C14.065 0.622604 14.065 1.04471 13.8039 1.30506L8.45569 6.6384C8.19462 6.89875 7.77133 6.89875 7.51026 6.6384C7.24918 6.37805 7.24918 5.95594 7.51026 5.69559L12.8584 0.362255C13.1195 0.101905 13.5428 0.101905 13.8039 0.362255Z" fill="#005FFF"/>
<path fill-rule="evenodd" clip-rule="evenodd" d="M9.79314 0.362255C10.0542 0.622604 10.0542 1.04471 9.79314 1.30506L4.44495 6.6384C4.18388 6.89875 3.76059 6.89875 3.49952 6.6384C3.23844 6.37805 3.23844 5.95594 3.49952 5.69559L8.8477 0.362255C9.10878 0.101905 9.53206 0.101905 9.79314 0.362255Z" fill="#005FFF"/>
<path fill-rule="evenodd" clip-rule="evenodd" d="M5.50489 3.69526C5.76596 3.43491 6.18925 3.43491 6.45032 3.69526L8.45589 5.69526C8.71697 5.95561 8.71697 6.37772 8.45589 6.63807C8.19482 6.89842 7.77153 6.89842 7.51046 6.63807L5.50489 4.63807C5.24381 4.37772 5.24381 3.95561 5.50489 3.69526Z" fill="#005FFF"/>
<path fill-rule="evenodd" clip-rule="evenodd" d="M0.8252 3.02925C1.08627 2.7689 1.50956 2.7689 1.77064 3.02925L4.44473 5.69591C4.7058 5.95626 4.7058 6.37837 4.44473 6.63872C4.18365 6.89907 3.76037 6.89907 3.49929 6.63872L0.8252 3.97206C0.564126 3.71171 0.564126 3.2896 0.8252 3.02925Z" fill="#005FFF"/>
</svg>
