<svg width="127" height="142" viewBox="0 0 127 142" fill="none" xmlns="http://www.w3.org/2000/svg">
<mask id="path-1-inside-1_1562_1408" fill="white">
<path fill-rule="evenodd" clip-rule="evenodd" d="M16.3163 54.6914C16.3137 54.6853 16.3066 54.6824 16.3004 54.685C16.2897 54.6895 16.2793 54.6778 16.2851 54.6677L35.0997 21.25C37.5734 16.8565 42.7173 14.7072 47.5814 16.0348L84.5908 26.1364C84.6385 26.1494 84.6892 26.1462 84.7348 26.1271C84.8489 26.0796 84.9798 26.1342 85.0262 26.2487L88.18 34.0249C88.1966 34.0658 88.1771 34.1124 88.1363 34.1294C88.0955 34.1463 88.076 34.193 88.0926 34.2339L115.228 101.143C116.799 105.016 114.952 109.458 111.098 111.075L58.9112 132.979C55.1214 134.57 50.7804 132.842 49.1213 129.083L19.7648 62.5702C19.7612 62.5622 19.752 62.5585 19.7439 62.5618C19.7358 62.5652 19.7264 62.5614 19.7229 62.5534L16.3163 54.6914Z"/>
</mask>
<path fill-rule="evenodd" clip-rule="evenodd" d="M16.3163 54.6914C16.3137 54.6853 16.3066 54.6824 16.3004 54.685C16.2897 54.6895 16.2793 54.6778 16.2851 54.6677L35.0997 21.25C37.5734 16.8565 42.7173 14.7072 47.5814 16.0348L84.5908 26.1364C84.6385 26.1494 84.6892 26.1462 84.7348 26.1271C84.8489 26.0796 84.9798 26.1342 85.0262 26.2487L88.18 34.0249C88.1966 34.0658 88.1771 34.1124 88.1363 34.1294C88.0955 34.1463 88.076 34.193 88.0926 34.2339L115.228 101.143C116.799 105.016 114.952 109.458 111.098 111.075L58.9112 132.979C55.1214 134.57 50.7804 132.842 49.1213 129.083L19.7648 62.5702C19.7612 62.5622 19.752 62.5585 19.7439 62.5618C19.7358 62.5652 19.7264 62.5614 19.7229 62.5534L16.3163 54.6914Z" fill="white"/>
<path d="M115.228 101.143L117.082 100.392L115.228 101.143ZM111.098 111.075L111.872 112.919L111.873 112.919L111.098 111.075ZM58.9112 132.979L59.6852 134.823L59.6852 134.823L58.9112 132.979ZM49.1213 129.083L47.2916 129.891L49.1213 129.083ZM88.0926 34.2339L89.946 33.4823L88.0926 34.2339ZM88.18 34.0249L86.3266 34.7765L88.18 34.0249ZM88.1363 34.1294L88.904 35.9762L88.1363 34.1294ZM85.0262 26.2487L86.8796 25.497L85.0262 26.2487ZM84.5908 26.1364L85.1174 24.207L84.5908 26.1364ZM84.7348 26.1271L83.9649 24.2813L84.7348 26.1271ZM47.5814 16.0348L48.108 14.1054L47.5814 16.0348ZM19.7229 62.5534L17.8878 63.3485L19.7229 62.5534ZM16.2851 54.6677L18.0278 55.6489L16.2851 54.6677ZM19.7648 62.5702L17.9351 63.3778L19.7648 62.5702ZM19.7439 62.5618L20.5116 64.4086L19.7439 62.5618ZM16.3004 54.685L17.0682 56.5318L16.3004 54.685ZM16.3163 54.6914L18.1515 53.8963L16.3163 54.6914ZM18.0278 55.6489L36.8425 22.2312L33.357 20.2688L14.5423 53.6865L18.0278 55.6489ZM47.0548 17.9642L84.0642 28.0658L85.1174 24.207L48.108 14.1054L47.0548 17.9642ZM83.1729 27.0003L86.3266 34.7765L90.0333 33.2732L86.8796 25.497L83.1729 27.0003ZM86.2392 34.9856L113.375 101.895L117.082 100.392L89.946 33.4823L86.2392 34.9856ZM113.375 101.895C114.534 104.753 113.169 108.037 110.324 109.231L111.873 112.919C116.736 110.878 119.064 105.28 117.082 100.392L113.375 101.895ZM110.324 109.231L58.1372 131.135L59.6852 134.823L111.872 112.919L110.324 109.231ZM58.1372 131.135C55.3522 132.304 52.1696 131.037 50.951 128.276L47.2916 129.891C49.3912 134.648 54.8905 136.836 59.6852 134.823L58.1372 131.135ZM50.951 128.276L21.5945 61.7626L17.9351 63.3778L47.2916 129.891L50.951 128.276ZM21.5581 61.7582L18.1515 53.8963L14.4812 55.4866L17.8878 63.3485L21.5581 61.7582ZM87.3685 32.2826C86.3141 32.721 85.81 33.9274 86.2392 34.9856L89.946 33.4823C90.342 34.4587 89.8769 35.5717 88.904 35.9762L87.3685 32.2826ZM86.3266 34.7765C85.9306 33.8001 86.3956 32.6871 87.3685 32.2826L88.904 35.9762C89.9585 35.5378 90.4625 34.3314 90.0333 33.2732L86.3266 34.7765ZM85.5047 27.973C84.5922 28.3536 83.5444 27.9166 83.1729 27.0003L86.8796 25.497C86.4151 24.3518 85.1055 23.8055 83.9649 24.2813L85.5047 27.973ZM84.0642 28.0658C84.5413 28.1961 85.0483 28.1634 85.5047 27.973L83.9649 24.2813C84.3301 24.1289 84.7357 24.1028 85.1174 24.207L84.0642 28.0658ZM36.8425 22.2312C38.8664 18.6365 43.0751 16.878 47.0548 17.9642L48.108 14.1054C42.3596 12.5364 36.2803 15.0764 33.357 20.2688L36.8425 22.2312ZM18.9762 60.715C19.9773 60.2989 21.127 60.7634 21.5581 61.7582L17.8878 63.3485C18.3258 64.3595 19.4942 64.8315 20.5116 64.4086L18.9762 60.715ZM15.5326 52.8382C17.2775 52.1128 18.9549 54.0023 18.0278 55.6489L14.5423 53.6865C13.6038 55.3534 15.3018 57.2661 17.0682 56.5318L15.5326 52.8382ZM21.5945 61.7626C21.1516 60.7593 19.9883 60.2943 18.9762 60.715L20.5116 64.4086C19.5156 64.8227 18.3708 64.3651 17.9351 63.3778L21.5945 61.7626ZM17.0682 56.5318C16.0653 56.9487 14.9131 56.4834 14.4812 55.4866L18.1515 53.8963C17.7142 52.8871 16.5479 52.4161 15.5326 52.8382L17.0682 56.5318Z" fill="white" mask="url(#path-1-inside-1_1562_1408)"/>
<g filter="url(#filter0_i_1562_1408)">
<path d="M48.7264 30.3461C48.7264 32.6903 46.8261 34.5907 44.4819 34.5907C42.1377 34.5907 40.2373 32.6903 40.2373 30.3461C40.2373 28.0019 42.1377 26.1016 44.4819 26.1016C46.8261 26.1016 48.7264 28.0019 48.7264 30.3461Z" fill="url(#paint0_linear_1562_1408)"/>
</g>
<g filter="url(#filter1_d_1562_1408)">
<path d="M70.8704 108.458C64.3609 110.985 57.044 107.753 54.5277 101.24L52.2801 95.4217C49.7638 88.9082 53.0009 81.5795 59.5104 79.0526L71.0163 74.5863C77.5258 72.0595 84.8426 75.2914 87.359 81.8049L89.6065 87.6228C92.1229 94.1363 88.8858 101.465 82.3763 103.992L70.8704 108.458Z" fill="url(#paint1_linear_1562_1408)"/>
</g>
<g filter="url(#filter2_d_1562_1408)">
<path d="M47.8591 59.2944C46.0716 56.7369 46.7521 53.2989 49.3791 51.6152C52.006 49.9315 55.5847 50.6399 57.3722 53.1973L69.3756 70.3705C71.1632 72.9279 70.4827 76.366 67.8557 78.0497C65.2287 79.7333 61.6501 79.025 59.8625 76.4676L47.8591 59.2944Z" fill="url(#paint2_linear_1562_1408)"/>
</g>
<g filter="url(#filter3_d_1562_1408)">
<path d="M51.9944 79.6479C50.2068 77.0905 50.8873 73.6524 53.5143 71.9687C56.1413 70.2851 59.72 70.9934 61.5075 73.5508L66.7718 81.0825C68.5594 83.6399 67.8789 87.078 65.2519 88.7616C62.6249 90.4453 59.0463 89.737 57.2587 87.1795L51.9944 79.6479Z" fill="url(#paint3_linear_1562_1408)"/>
</g>
<g filter="url(#filter4_d_1562_1408)">
<path d="M46.1042 86.9369C44.3167 84.3795 44.9972 80.9414 47.6242 79.2578C50.2512 77.5741 53.8298 78.2824 55.6174 80.8399L60.8268 88.293C62.6143 90.8504 61.9338 94.2885 59.3069 95.9721C56.6799 97.6558 53.1012 96.9475 51.3137 94.39L46.1042 86.9369Z" fill="url(#paint4_linear_1562_1408)"/>
</g>
<g filter="url(#filter5_d_1562_1408)">
<path d="M66.9917 50.5429C66.6181 47.448 68.8084 44.5257 71.8839 44.0159C74.9593 43.506 77.7553 45.6017 78.1288 48.6966L80.9539 72.1019C81.3275 75.1968 79.1372 78.1191 76.0618 78.6289C72.9863 79.1388 70.1904 77.0431 69.8168 73.9482L66.9917 50.5429Z" fill="url(#paint5_linear_1562_1408)"/>
</g>
<g filter="url(#filter6_d_1562_1408)">
<path d="M65.3531 83.4194C62.8889 83.4454 61.0103 81.4724 61.157 79.0125C61.3037 76.5526 63.4202 74.5373 65.8843 74.5113L82.9937 74.3303C85.4578 74.3043 87.3365 76.2773 87.1898 78.7372C87.0431 81.1971 84.9266 83.2124 82.4624 83.2385L65.3531 83.4194Z" fill="url(#paint6_linear_1562_1408)"/>
</g>
<defs>
<filter id="filter0_i_1562_1408" x="40.2373" y="26.1016" width="10.4893" height="12.4883" filterUnits="userSpaceOnUse" color-interpolation-filters="sRGB">
<feFlood flood-opacity="0" result="BackgroundImageFix"/>
<feBlend mode="normal" in="SourceGraphic" in2="BackgroundImageFix" result="shape"/>
<feColorMatrix in="SourceAlpha" type="matrix" values="0 0 0 0 0 0 0 0 0 0 0 0 0 0 0 0 0 0 127 0" result="hardAlpha"/>
<feOffset dx="2" dy="4"/>
<feGaussianBlur stdDeviation="2"/>
<feComposite in2="hardAlpha" operator="arithmetic" k2="-1" k3="1"/>
<feColorMatrix type="matrix" values="0 0 0 0 0 0 0 0 0 0 0 0 0 0 0 0 0 0 0.25 0"/>
<feBlend mode="normal" in2="shape" result="effect1_innerShadow_1562_1408"/>
</filter>
<filter id="filter1_d_1562_1408" x="47.4268" y="73.7266" width="47.0332" height="43.5918" filterUnits="userSpaceOnUse" color-interpolation-filters="sRGB">
<feFlood flood-opacity="0" result="BackgroundImageFix"/>
<feColorMatrix in="SourceAlpha" type="matrix" values="0 0 0 0 0 0 0 0 0 0 0 0 0 0 0 0 0 0 127 0" result="hardAlpha"/>
<feOffset dy="4"/>
<feGaussianBlur stdDeviation="2"/>
<feComposite in2="hardAlpha" operator="out"/>
<feColorMatrix type="matrix" values="0 0 0 0 0 0 0 0 0 0 0 0 0 0 0 0 0 0 0.25 0"/>
<feBlend mode="normal" in2="BackgroundImageFix" result="effect1_dropShadow_1562_1408"/>
<feBlend mode="normal" in="SourceGraphic" in2="effect1_dropShadow_1562_1408" result="shape"/>
</filter>
<filter id="filter2_d_1562_1408" x="42.8618" y="50.7012" width="31.5112" height="36.2617" filterUnits="userSpaceOnUse" color-interpolation-filters="sRGB">
<feFlood flood-opacity="0" result="BackgroundImageFix"/>
<feColorMatrix in="SourceAlpha" type="matrix" values="0 0 0 0 0 0 0 0 0 0 0 0 0 0 0 0 0 0 127 0" result="hardAlpha"/>
<feOffset dy="4"/>
<feGaussianBlur stdDeviation="2"/>
<feComposite in2="hardAlpha" operator="out"/>
<feColorMatrix type="matrix" values="0 0 0 0 0 0 0 0 0 0 0 0 0 0 0 0 0 0 0.25 0"/>
<feBlend mode="normal" in2="BackgroundImageFix" result="effect1_dropShadow_1562_1408"/>
<feBlend mode="normal" in="SourceGraphic" in2="effect1_dropShadow_1562_1408" result="shape"/>
</filter>
<filter id="filter3_d_1562_1408" x="46.9971" y="71.0547" width="24.772" height="26.6211" filterUnits="userSpaceOnUse" color-interpolation-filters="sRGB">
<feFlood flood-opacity="0" result="BackgroundImageFix"/>
<feColorMatrix in="SourceAlpha" type="matrix" values="0 0 0 0 0 0 0 0 0 0 0 0 0 0 0 0 0 0 127 0" result="hardAlpha"/>
<feOffset dy="4"/>
<feGaussianBlur stdDeviation="2"/>
<feComposite in2="hardAlpha" operator="out"/>
<feColorMatrix type="matrix" values="0 0 0 0 0 0 0 0 0 0 0 0 0 0 0 0 0 0 0.25 0"/>
<feBlend mode="normal" in2="BackgroundImageFix" result="effect1_dropShadow_1562_1408"/>
<feBlend mode="normal" in="SourceGraphic" in2="effect1_dropShadow_1562_1408" result="shape"/>
</filter>
<filter id="filter4_d_1562_1408" x="41.1069" y="78.3438" width="24.7173" height="26.543" filterUnits="userSpaceOnUse" color-interpolation-filters="sRGB">
<feFlood flood-opacity="0" result="BackgroundImageFix"/>
<feColorMatrix in="SourceAlpha" type="matrix" values="0 0 0 0 0 0 0 0 0 0 0 0 0 0 0 0 0 0 127 0" result="hardAlpha"/>
<feOffset dy="4"/>
<feGaussianBlur stdDeviation="2"/>
<feComposite in2="hardAlpha" operator="out"/>
<feColorMatrix type="matrix" values="0 0 0 0 0 0 0 0 0 0 0 0 0 0 0 0 0 0 0.25 0"/>
<feBlend mode="normal" in2="BackgroundImageFix" result="effect1_dropShadow_1562_1408"/>
<feBlend mode="normal" in="SourceGraphic" in2="effect1_dropShadow_1562_1408" result="shape"/>
</filter>
<filter id="filter5_d_1562_1408" x="62.9502" y="43.9395" width="22.0454" height="42.7656" filterUnits="userSpaceOnUse" color-interpolation-filters="sRGB">
<feFlood flood-opacity="0" result="BackgroundImageFix"/>
<feColorMatrix in="SourceAlpha" type="matrix" values="0 0 0 0 0 0 0 0 0 0 0 0 0 0 0 0 0 0 127 0" result="hardAlpha"/>
<feOffset dy="4"/>
<feGaussianBlur stdDeviation="2"/>
<feComposite in2="hardAlpha" operator="out"/>
<feColorMatrix type="matrix" values="0 0 0 0 0 0 0 0 0 0 0 0 0 0 0 0 0 0 0.25 0"/>
<feBlend mode="normal" in2="BackgroundImageFix" result="effect1_dropShadow_1562_1408"/>
<feBlend mode="normal" in="SourceGraphic" in2="effect1_dropShadow_1562_1408" result="shape"/>
</filter>
<filter id="filter6_d_1562_1408" x="57.1489" y="74.3301" width="34.0488" height="17.0898" filterUnits="userSpaceOnUse" color-interpolation-filters="sRGB">
<feFlood flood-opacity="0" result="BackgroundImageFix"/>
<feColorMatrix in="SourceAlpha" type="matrix" values="0 0 0 0 0 0 0 0 0 0 0 0 0 0 0 0 0 0 127 0" result="hardAlpha"/>
<feOffset dy="4"/>
<feGaussianBlur stdDeviation="2"/>
<feComposite in2="hardAlpha" operator="out"/>
<feColorMatrix type="matrix" values="0 0 0 0 0 0 0 0 0 0 0 0 0 0 0 0 0 0 0.25 0"/>
<feBlend mode="normal" in2="BackgroundImageFix" result="effect1_dropShadow_1562_1408"/>
<feBlend mode="normal" in="SourceGraphic" in2="effect1_dropShadow_1562_1408" result="shape"/>
</filter>
<linearGradient id="paint0_linear_1562_1408" x1="44.4819" y1="26.1016" x2="44.4819" y2="34.5907" gradientUnits="userSpaceOnUse">
<stop stop-color="#DB3B39"/>
<stop offset="1" stop-color="#F9CC65"/>
</linearGradient>
<linearGradient id="paint1_linear_1562_1408" x1="53.4037" y1="98.3305" x2="88.5044" y2="84.7703" gradientUnits="userSpaceOnUse">
<stop stop-color="#F9CC65"/>
<stop offset="1" stop-color="#DB3B39"/>
</linearGradient>
<linearGradient id="paint2_linear_1562_1408" x1="49.379" y1="51.6151" x2="66.7679" y2="78.7467" gradientUnits="userSpaceOnUse">
<stop stop-color="#F9CC65"/>
<stop offset="1" stop-color="#DB3B39"/>
</linearGradient>
<linearGradient id="paint3_linear_1562_1408" x1="53.5142" y1="71.9687" x2="64.5608" y2="89.2044" gradientUnits="userSpaceOnUse">
<stop stop-color="#F9CC65"/>
<stop offset="1" stop-color="#DB3B39"/>
</linearGradient>
<linearGradient id="paint4_linear_1562_1408" x1="47.6245" y1="79.2575" x2="58.6194" y2="96.4127" gradientUnits="userSpaceOnUse">
<stop stop-color="#F9CC65"/>
<stop offset="1" stop-color="#DB3B39"/>
</linearGradient>
<linearGradient id="paint5_linear_1562_1408" x1="71.8838" y1="44.0159" x2="77.5802" y2="78.3772" gradientUnits="userSpaceOnUse">
<stop stop-color="#F9CC65"/>
<stop offset="1" stop-color="#DB3B39"/>
</linearGradient>
<linearGradient id="paint6_linear_1562_1408" x1="61.157" y1="79.0124" x2="87.0812" y2="80.5584" gradientUnits="userSpaceOnUse">
<stop stop-color="#F9CC65"/>
<stop offset="1" stop-color="#DB3B39"/>
</linearGradient>
</defs>
</svg>
