<svg width="28" height="28" viewBox="0 0 28 28" fill="none" xmlns="http://www.w3.org/2000/svg">
<mask id="mask0_721_1837" style="mask-type:luminance" maskUnits="userSpaceOnUse" x="0" y="0" width="28" height="28">
<path d="M28 0H0V28H28V0Z" fill="white"/>
</mask>
<g mask="url(#mask0_721_1837)">
<path d="M13.8909 21.4697C13.9544 21.5153 14.0456 21.5153 14.1091 21.4697C18.287 18.5216 20.347 15.8418 20.347 15.8418C21.6251 14.3937 22.2798 13.1227 22.2736 11.6308C22.2655 9.94831 21.296 8.36246 19.7459 7.70773C17.7871 6.88037 15.661 7.54047 14.4195 9.00289L14 9.50288L13.5805 8.99484C12.3399 7.53242 10.212 6.87321 8.25317 7.70058C6.7031 8.3562 5.73352 9.94116 5.72636 11.6236C5.7201 13.1155 6.37484 14.3865 7.653 15.8347C7.653 15.8347 9.7138 18.5216 13.8909 21.4697Z" stroke="#6B6B6B" stroke-width="1.34167"/>
</g>
</svg>
