<svg width="29" height="29" viewBox="0 0 29 29" fill="none" xmlns="http://www.w3.org/2000/svg">
<path d="M14.4998 0.166016C16.4006 0.166016 18.2234 0.921073 19.5674 2.26508C20.9114 3.60909 21.6665 5.43196 21.6665 7.33268C21.6665 9.2334 20.9114 11.0563 19.5674 12.4003C18.2234 13.7443 16.4006 14.4993 14.4998 14.4993C12.5991 14.4993 10.7762 13.7443 9.43224 12.4003C8.08823 11.0563 7.33317 9.2334 7.33317 7.33268C7.33317 5.43196 8.08823 3.60909 9.43224 2.26508C10.7762 0.921073 12.5991 0.166016 14.4998 0.166016ZM14.4998 3.74935C13.5495 3.74935 12.638 4.12688 11.966 4.79888C11.294 5.47089 10.9165 6.38232 10.9165 7.33268C10.9165 8.28304 11.294 9.19448 11.966 9.86648C12.638 10.5385 13.5495 10.916 14.4998 10.916C15.4502 10.916 16.3616 10.5385 17.0336 9.86648C17.7056 9.19448 18.0832 8.28304 18.0832 7.33268C18.0832 6.38232 17.7056 5.47089 17.0336 4.79888C16.3616 4.12688 15.4502 3.74935 14.4998 3.74935ZM14.4998 16.291C19.2836 16.291 28.8332 18.6739 28.8332 23.4577V28.8327H0.166504V23.4577C0.166504 18.6739 9.71609 16.291 14.4998 16.291ZM14.4998 19.6952C9.17859 19.6952 3.57067 22.311 3.57067 23.4577V25.4285H25.429V23.4577C25.429 22.311 19.8211 19.6952 14.4998 19.6952Z" fill="black"/>
</svg>
