<svg width="305" height="77" viewBox="0 0 305 77" fill="none" xmlns="http://www.w3.org/2000/svg">
<path d="M0.0222134 26.0984L0.0254848 26.097L0.0222134 26.0984ZM1.12377 26.1275L15.1911 1.14168C15.2536 1.03069 15.3836 0.976391 15.5065 1.00993L43.476 8.64414L45.1846 12.8571C45.1751 13.0094 45.1988 13.1662 45.26 13.3171L45.26 13.3172L62.7132 56.3517C63.5177 58.3354 62.5705 60.6134 60.5965 61.4419L27.0304 75.5303C25.0953 76.3425 22.8824 75.4616 22.0355 73.5428L3.15388 30.7626L3.15387 30.7626C3.12709 30.7019 3.09507 30.6452 3.05857 30.5927L1.12377 26.1275Z" fill="black" stroke="black" stroke-width="2"/>
<g filter="url(#filter0_i_1568_1089)">
<circle cx="18.1387" cy="10.441" r="2.73003" fill="white"/>
</g>
<g filter="url(#filter1_d_1568_1089)">
<path d="M35.106 60.6807C30.9192 62.3059 26.213 60.2272 24.5946 56.0378L23.149 52.2958C21.5305 48.1064 23.6126 43.3927 27.7994 41.7675L35.1998 38.8948C39.3866 37.2696 44.0927 39.3483 45.7112 43.5377L47.1568 47.2796C48.7753 51.4691 46.6932 56.1828 42.5064 57.808L35.106 60.6807Z" fill="url(#paint0_linear_1568_1089)"/>
</g>
<g filter="url(#filter2_d_1568_1089)">
<path d="M20.3089 29.0602C19.1592 27.4153 19.5969 25.204 21.2865 24.1211C22.9762 23.0382 25.2779 23.4938 26.4276 25.1387L34.1481 36.1842C35.2978 37.8291 34.8601 40.0405 33.1705 41.1234C31.4808 42.2063 29.1791 41.7507 28.0293 40.1058L20.3089 29.0602Z" fill="url(#paint1_linear_1568_1089)"/>
</g>
<g filter="url(#filter3_d_1568_1089)">
<path d="M22.9657 42.1501C21.816 40.5052 22.2536 38.2938 23.9433 37.2109C25.6329 36.128 27.9347 36.5836 29.0844 38.2285L32.4703 43.0728C33.62 44.7177 33.1824 46.929 31.4927 48.0119C29.8031 49.0948 27.5013 48.6392 26.3516 46.9943L22.9657 42.1501Z" fill="url(#paint2_linear_1568_1089)"/>
</g>
<g filter="url(#filter4_d_1568_1089)">
<path d="M19.1805 46.8395C18.0308 45.1946 18.4685 42.9833 20.1581 41.9004C21.8478 40.8175 24.1495 41.2731 25.2992 42.918L28.6499 47.7117C29.7996 49.3566 29.3619 51.5679 27.6723 52.6508C25.9826 53.7337 23.6809 53.2781 22.5311 51.6333L19.1805 46.8395Z" fill="url(#paint3_linear_1568_1089)"/>
</g>
<g filter="url(#filter5_d_1568_1089)">
<path d="M32.6131 23.4308C32.3728 21.4402 33.7816 19.5607 35.7597 19.2327C37.7378 18.9048 39.5361 20.2527 39.7764 22.2433L41.5934 37.2973C41.8337 39.2879 40.4249 41.1675 38.4469 41.4954C36.4688 41.8233 34.6705 40.4754 34.4302 38.4848L32.6131 23.4308Z" fill="url(#paint4_linear_1568_1089)"/>
</g>
<g filter="url(#filter6_d_1568_1089)">
<path d="M31.562 44.5766C29.9771 44.5933 28.7687 43.3243 28.8631 41.7421C28.9574 40.16 30.3187 38.8638 31.9036 38.847L42.9081 38.7306C44.493 38.7139 45.7014 39.9829 45.607 41.5651C45.5127 43.1473 44.1514 44.4434 42.5665 44.4602L31.562 44.5766Z" fill="url(#paint5_linear_1568_1089)"/>
</g>
<path d="M95.0199 31.1818V35.7273H81.8807V31.1818H95.0199ZM84.8636 25.9545H90.9148V46.2955C90.9148 46.8542 91 47.2898 91.1705 47.6023C91.3409 47.9053 91.5777 48.1184 91.8807 48.2415C92.1932 48.3646 92.553 48.4261 92.9602 48.4261C93.2443 48.4261 93.5284 48.4025 93.8125 48.3551C94.0966 48.2983 94.3144 48.2557 94.4659 48.2273L95.4176 52.7301C95.1146 52.8248 94.6884 52.9337 94.1392 53.0568C93.59 53.1894 92.9223 53.2699 92.1364 53.2983C90.678 53.3551 89.3996 53.161 88.3011 52.7159C87.2121 52.2708 86.3646 51.5795 85.7585 50.642C85.1525 49.7045 84.8542 48.5208 84.8636 47.0909V25.9545ZM96.5616 53V31.1818H102.428V34.9886H102.655C103.053 33.6345 103.721 32.6117 104.658 31.9205C105.596 31.2197 106.675 30.8693 107.897 30.8693C108.2 30.8693 108.527 30.8883 108.877 30.9261C109.227 30.964 109.535 31.0161 109.8 31.0824V36.4517C109.516 36.3665 109.123 36.2907 108.621 36.2244C108.119 36.1581 107.66 36.125 107.243 36.125C106.353 36.125 105.558 36.3191 104.857 36.7074C104.166 37.0862 103.617 37.6165 103.209 38.2983C102.812 38.9801 102.613 39.7661 102.613 40.6562V53H96.5616ZM119.371 53.4261C117.165 53.4261 115.257 52.9574 113.647 52.0199C112.046 51.0729 110.811 49.7566 109.939 48.071C109.068 46.3759 108.633 44.411 108.633 42.1761C108.633 39.9223 109.068 37.9527 109.939 36.267C110.811 34.572 112.046 33.2557 113.647 32.3182C115.257 31.3712 117.165 30.8977 119.371 30.8977C121.578 30.8977 123.481 31.3712 125.081 32.3182C126.691 33.2557 127.932 34.572 128.803 36.267C129.674 37.9527 130.11 39.9223 130.11 42.1761C130.11 44.411 129.674 46.3759 128.803 48.071C127.932 49.7566 126.691 51.0729 125.081 52.0199C123.481 52.9574 121.578 53.4261 119.371 53.4261ZM119.4 48.7386C120.403 48.7386 121.241 48.4545 121.914 47.8864C122.586 47.3087 123.093 46.5227 123.434 45.5284C123.784 44.5341 123.959 43.4025 123.959 42.1335C123.959 40.8646 123.784 39.733 123.434 38.7386C123.093 37.7443 122.586 36.9583 121.914 36.3807C121.241 35.803 120.403 35.5142 119.4 35.5142C118.386 35.5142 117.534 35.803 116.843 36.3807C116.161 36.9583 115.645 37.7443 115.294 38.7386C114.954 39.733 114.783 40.8646 114.783 42.1335C114.783 43.4025 114.954 44.5341 115.294 45.5284C115.645 46.5227 116.161 47.3087 116.843 47.8864C117.534 48.4545 118.386 48.7386 119.4 48.7386ZM131.644 31.1818H137.696V54.0795C137.696 55.7652 137.364 57.1288 136.701 58.1705C136.038 59.2121 135.087 59.9744 133.846 60.4574C132.615 60.9403 131.143 61.1818 129.429 61.1818C129.22 61.1818 129.021 61.1771 128.832 61.1676C128.633 61.1676 128.425 61.1629 128.207 61.1534V56.4233C128.368 56.4328 128.51 56.4375 128.633 56.4375C128.747 56.447 128.87 56.4517 129.002 56.4517C129.978 56.4517 130.66 56.2434 131.048 55.8267C131.446 55.4195 131.644 54.804 131.644 53.9801V31.1818ZM134.656 28.3693C133.766 28.3693 132.999 28.071 132.355 27.4744C131.711 26.8684 131.389 26.1439 131.389 25.3011C131.389 24.4678 131.711 23.7528 132.355 23.1562C132.999 22.5502 133.766 22.2472 134.656 22.2472C135.565 22.2472 136.337 22.5502 136.971 23.1562C137.615 23.7528 137.937 24.4678 137.937 25.3011C137.937 26.1439 137.615 26.8684 136.971 27.4744C136.337 28.071 135.565 28.3693 134.656 28.3693ZM146.364 53.4119C144.972 53.4119 143.732 53.1705 142.643 52.6875C141.554 52.1951 140.692 51.4706 140.058 50.5142C139.433 49.5483 139.12 48.3456 139.12 46.9062C139.12 45.6941 139.343 44.6761 139.788 43.8523C140.233 43.0284 140.839 42.3655 141.606 41.8636C142.373 41.3617 143.244 40.983 144.22 40.7273C145.204 40.4716 146.237 40.2917 147.316 40.1875C148.585 40.0549 149.608 39.9318 150.384 39.8182C151.161 39.6951 151.724 39.5152 152.075 39.2784C152.425 39.0417 152.6 38.6913 152.6 38.2273V38.142C152.6 37.2424 152.316 36.5464 151.748 36.054C151.189 35.5616 150.394 35.3153 149.362 35.3153C148.273 35.3153 147.406 35.5568 146.762 36.0398C146.118 36.5133 145.692 37.1098 145.484 37.8295L139.887 37.375C140.171 36.0492 140.73 34.9034 141.563 33.9375C142.397 32.9621 143.471 32.214 144.788 31.6932C146.114 31.1629 147.648 30.8977 149.39 30.8977C150.602 30.8977 151.762 31.0398 152.87 31.3239C153.988 31.608 154.977 32.0483 155.839 32.6449C156.71 33.2415 157.397 34.0085 157.899 34.946C158.4 35.8741 158.651 36.9867 158.651 38.2841V53H152.913V49.9744H152.742C152.392 50.6562 151.923 51.2576 151.336 51.7784C150.749 52.2898 150.043 52.6922 149.22 52.9858C148.396 53.2699 147.444 53.4119 146.364 53.4119ZM148.097 49.2358C148.988 49.2358 149.774 49.0606 150.455 48.7102C151.137 48.3504 151.672 47.8674 152.061 47.2614C152.449 46.6553 152.643 45.9687 152.643 45.2017V42.8864C152.454 43.0095 152.193 43.1231 151.862 43.2273C151.54 43.322 151.175 43.4119 150.768 43.4972C150.361 43.5729 149.954 43.6439 149.546 43.7102C149.139 43.767 148.77 43.8191 148.438 43.8665C147.728 43.9706 147.108 44.1364 146.578 44.3636C146.047 44.5909 145.635 44.8987 145.342 45.2869C145.048 45.6657 144.901 46.1392 144.901 46.7074C144.901 47.5312 145.2 48.161 145.796 48.5966C146.402 49.0227 147.169 49.2358 148.097 49.2358ZM166.997 40.3864V53H160.946V31.1818H166.713V35.0312H166.969C167.452 33.7623 168.261 32.7585 169.398 32.0199C170.534 31.2718 171.912 30.8977 173.531 30.8977C175.046 30.8977 176.367 31.2292 177.494 31.892C178.621 32.5549 179.497 33.5019 180.122 34.733C180.747 35.9545 181.06 37.4129 181.06 39.108V53H175.009V40.1875C175.018 38.8523 174.677 37.8106 173.986 37.0625C173.295 36.3049 172.343 35.9261 171.131 35.9261C170.316 35.9261 169.597 36.1013 168.972 36.4517C168.356 36.8021 167.873 37.3134 167.523 37.9858C167.182 38.6487 167.007 39.4489 166.997 40.3864ZM201.582 37.4034L196.042 37.7443C195.948 37.2708 195.744 36.8447 195.432 36.4659C195.119 36.0777 194.707 35.7699 194.196 35.5426C193.694 35.3059 193.093 35.1875 192.392 35.1875C191.454 35.1875 190.664 35.3864 190.02 35.7841C189.376 36.1723 189.054 36.6932 189.054 37.3466C189.054 37.8674 189.262 38.3078 189.679 38.6676C190.096 39.0275 190.81 39.3163 191.824 39.5341L195.773 40.3295C197.894 40.7652 199.475 41.4659 200.517 42.4318C201.559 43.3977 202.079 44.6667 202.079 46.2386C202.079 47.6686 201.658 48.9233 200.815 50.0028C199.982 51.0824 198.836 51.9252 197.378 52.5312C195.929 53.1278 194.257 53.4261 192.363 53.4261C189.475 53.4261 187.174 52.8248 185.46 51.6222C183.756 50.41 182.756 48.7623 182.463 46.679L188.415 46.3665C188.595 47.2472 189.03 47.9195 189.721 48.3835C190.413 48.8381 191.298 49.0653 192.378 49.0653C193.438 49.0653 194.291 48.8617 194.935 48.4545C195.588 48.0379 195.919 47.5028 195.929 46.8494C195.919 46.3002 195.687 45.8504 195.233 45.5C194.778 45.1402 194.078 44.8655 193.131 44.6761L189.352 43.9233C187.221 43.4972 185.635 42.7585 184.594 41.7074C183.561 40.6562 183.045 39.3163 183.045 37.6875C183.045 36.286 183.424 35.0786 184.182 34.0653C184.949 33.0521 186.024 32.2708 187.406 31.7216C188.798 31.1723 190.427 30.8977 192.292 30.8977C195.048 30.8977 197.217 31.4801 198.798 32.6449C200.389 33.8097 201.317 35.3958 201.582 37.4034ZM217.907 61.1818V49.5057H217.723C217.439 50.1117 217.036 50.7131 216.515 51.3097C216.004 51.8968 215.336 52.3845 214.512 52.7727C213.698 53.161 212.704 53.3551 211.53 53.3551C209.872 53.3551 208.371 52.929 207.027 52.0767C205.691 51.215 204.631 49.9508 203.845 48.2841C203.068 46.608 202.68 44.553 202.68 42.1193C202.68 39.6193 203.083 37.5407 203.887 35.8835C204.692 34.2169 205.762 32.9716 207.098 32.1477C208.442 31.3144 209.915 30.8977 211.515 30.8977C212.737 30.8977 213.755 31.1061 214.569 31.5227C215.393 31.9299 216.056 32.4413 216.558 33.0568C217.069 33.6629 217.458 34.2595 217.723 34.8466H217.978V31.1818H223.944V61.1818H217.907ZM213.447 48.5398C214.423 48.5398 215.246 48.2746 215.919 47.7443C216.601 47.2045 217.121 46.4517 217.481 45.4858C217.851 44.5199 218.035 43.3883 218.035 42.0909C218.035 40.7936 217.855 39.6667 217.495 38.7102C217.136 37.7538 216.615 37.0152 215.933 36.4943C215.251 35.9735 214.423 35.7131 213.447 35.7131C212.453 35.7131 211.615 35.983 210.933 36.5227C210.251 37.0625 209.735 37.8106 209.385 38.767C209.034 39.7235 208.859 40.8314 208.859 42.0909C208.859 43.3598 209.034 44.482 209.385 45.4574C209.745 46.4233 210.261 47.1809 210.933 47.7301C211.615 48.2699 212.453 48.5398 213.447 48.5398ZM240.394 43.7102V31.1818H246.445V53H240.635V49.0369H240.408C239.916 50.3153 239.096 51.3428 237.951 52.1193C236.814 52.8958 235.427 53.2841 233.789 53.2841C232.33 53.2841 231.047 52.9527 229.939 52.2898C228.831 51.6269 227.965 50.6847 227.34 49.4631C226.724 48.2415 226.412 46.7784 226.402 45.0739V31.1818H232.453V43.9943C232.463 45.2822 232.809 46.3002 233.49 47.0483C234.172 47.7964 235.086 48.1705 236.232 48.1705C236.961 48.1705 237.643 48.0047 238.277 47.6733C238.912 47.3324 239.423 46.8305 239.811 46.1676C240.209 45.5047 240.403 44.6856 240.394 43.7102ZM255.107 53.4119C253.715 53.4119 252.474 53.1705 251.385 52.6875C250.296 52.1951 249.434 51.4706 248.8 50.5142C248.175 49.5483 247.862 48.3456 247.862 46.9062C247.862 45.6941 248.085 44.6761 248.53 43.8523C248.975 43.0284 249.581 42.3655 250.348 41.8636C251.115 41.3617 251.986 40.983 252.962 40.7273C253.947 40.4716 254.979 40.2917 256.058 40.1875C257.327 40.0549 258.35 39.9318 259.127 39.8182C259.903 39.6951 260.467 39.5152 260.817 39.2784C261.167 39.0417 261.342 38.6913 261.342 38.2273V38.142C261.342 37.2424 261.058 36.5464 260.49 36.054C259.931 35.5616 259.136 35.3153 258.104 35.3153C257.015 35.3153 256.148 35.5568 255.504 36.0398C254.86 36.5133 254.434 37.1098 254.226 37.8295L248.629 37.375C248.913 36.0492 249.472 34.9034 250.306 33.9375C251.139 32.9621 252.214 32.214 253.53 31.6932C254.856 31.1629 256.39 30.8977 258.132 30.8977C259.344 30.8977 260.504 31.0398 261.612 31.3239C262.73 31.608 263.719 32.0483 264.581 32.6449C265.452 33.2415 266.139 34.0085 266.641 34.946C267.143 35.8741 267.394 36.9867 267.394 38.2841V53H261.655V49.9744H261.485C261.134 50.6562 260.665 51.2576 260.078 51.7784C259.491 52.2898 258.786 52.6922 257.962 52.9858C257.138 53.2699 256.186 53.4119 255.107 53.4119ZM256.84 49.2358C257.73 49.2358 258.516 49.0606 259.198 48.7102C259.879 48.3504 260.414 47.8674 260.803 47.2614C261.191 46.6553 261.385 45.9687 261.385 45.2017V42.8864C261.196 43.0095 260.935 43.1231 260.604 43.2273C260.282 43.322 259.917 43.4119 259.51 43.4972C259.103 43.5729 258.696 43.6439 258.288 43.7102C257.881 43.767 257.512 43.8191 257.181 43.8665C256.47 43.9706 255.85 44.1364 255.32 44.3636C254.789 44.5909 254.378 44.8987 254.084 45.2869C253.79 45.6657 253.644 46.1392 253.644 46.7074C253.644 47.5312 253.942 48.161 254.538 48.5966C255.145 49.0227 255.912 49.2358 256.84 49.2358ZM269.688 53V31.1818H275.555V34.9886H275.782C276.18 33.6345 276.847 32.6117 277.785 31.9205C278.722 31.2197 279.802 30.8693 281.023 30.8693C281.326 30.8693 281.653 30.8883 282.004 30.9261C282.354 30.964 282.662 31.0161 282.927 31.0824V36.4517C282.643 36.3665 282.25 36.2907 281.748 36.2244C281.246 36.1581 280.787 36.125 280.37 36.125C279.48 36.125 278.684 36.3191 277.984 36.7074C277.292 37.0862 276.743 37.6165 276.336 38.2983C275.938 38.9801 275.739 39.7661 275.739 40.6562V53H269.688ZM292.583 53.4261C290.339 53.4261 288.407 52.9716 286.788 52.0625C285.178 51.1439 283.937 49.8466 283.066 48.1705C282.195 46.4848 281.759 44.4915 281.759 42.1903C281.759 39.946 282.195 37.9763 283.066 36.2812C283.937 34.5862 285.163 33.2652 286.745 32.3182C288.336 31.3712 290.201 30.8977 292.341 30.8977C293.781 30.8977 295.121 31.1297 296.361 31.5938C297.611 32.0483 298.7 32.7348 299.628 33.6534C300.566 34.572 301.295 35.7273 301.816 37.1193C302.337 38.5019 302.597 40.1212 302.597 41.9773V43.6392H284.174V39.8892H296.901C296.901 39.018 296.712 38.2462 296.333 37.5739C295.954 36.9015 295.429 36.3759 294.756 35.9972C294.093 35.6089 293.322 35.4148 292.441 35.4148C291.522 35.4148 290.708 35.6278 289.998 36.054C289.297 36.4706 288.748 37.0341 288.35 37.7443C287.952 38.4451 287.749 39.2263 287.739 40.0881V43.6534C287.739 44.733 287.938 45.6657 288.336 46.4517C288.743 47.2377 289.316 47.8438 290.055 48.2699C290.793 48.696 291.669 48.9091 292.682 48.9091C293.355 48.9091 293.97 48.8144 294.529 48.625C295.088 48.4356 295.566 48.1515 295.964 47.7727C296.361 47.3939 296.664 46.9299 296.873 46.3807L302.469 46.75C302.185 48.0947 301.603 49.2689 300.722 50.2727C299.851 51.267 298.724 52.0436 297.341 52.6023C295.968 53.1515 294.382 53.4261 292.583 53.4261Z" fill="black"/>
<defs>
<filter id="filter0_i_1568_1089" x="15.4087" y="7.71094" width="7.45996" height="9.46094" filterUnits="userSpaceOnUse" color-interpolation-filters="sRGB">
<feFlood flood-opacity="0" result="BackgroundImageFix"/>
<feBlend mode="normal" in="SourceGraphic" in2="BackgroundImageFix" result="shape"/>
<feColorMatrix in="SourceAlpha" type="matrix" values="0 0 0 0 0 0 0 0 0 0 0 0 0 0 0 0 0 0 127 0" result="hardAlpha"/>
<feOffset dx="2" dy="4"/>
<feGaussianBlur stdDeviation="2"/>
<feComposite in2="hardAlpha" operator="arithmetic" k2="-1" k3="1"/>
<feColorMatrix type="matrix" values="0 0 0 0 0 0 0 0 0 0 0 0 0 0 0 0 0 0 0.25 0"/>
<feBlend mode="normal" in2="shape" result="effect1_innerShadow_1568_1089"/>
</filter>
<filter id="filter1_d_1568_1089" x="18.6001" y="38.3418" width="33.1055" height="30.8926" filterUnits="userSpaceOnUse" color-interpolation-filters="sRGB">
<feFlood flood-opacity="0" result="BackgroundImageFix"/>
<feColorMatrix in="SourceAlpha" type="matrix" values="0 0 0 0 0 0 0 0 0 0 0 0 0 0 0 0 0 0 127 0" result="hardAlpha"/>
<feOffset dy="4"/>
<feGaussianBlur stdDeviation="2"/>
<feComposite in2="hardAlpha" operator="out"/>
<feColorMatrix type="matrix" values="0 0 0 0 0 0 0 0 0 0 0 0 0 0 0 0 0 0 0.25 0"/>
<feBlend mode="normal" in2="BackgroundImageFix" result="effect1_dropShadow_1568_1089"/>
<feBlend mode="normal" in="SourceGraphic" in2="effect1_dropShadow_1568_1089" result="shape"/>
</filter>
<filter id="filter2_d_1568_1089" x="15.6675" y="23.5332" width="23.1221" height="26.1777" filterUnits="userSpaceOnUse" color-interpolation-filters="sRGB">
<feFlood flood-opacity="0" result="BackgroundImageFix"/>
<feColorMatrix in="SourceAlpha" type="matrix" values="0 0 0 0 0 0 0 0 0 0 0 0 0 0 0 0 0 0 127 0" result="hardAlpha"/>
<feOffset dy="4"/>
<feGaussianBlur stdDeviation="2"/>
<feComposite in2="hardAlpha" operator="out"/>
<feColorMatrix type="matrix" values="0 0 0 0 0 0 0 0 0 0 0 0 0 0 0 0 0 0 0.25 0"/>
<feBlend mode="normal" in2="BackgroundImageFix" result="effect1_dropShadow_1568_1089"/>
<feBlend mode="normal" in="SourceGraphic" in2="effect1_dropShadow_1568_1089" result="shape"/>
</filter>
<filter id="filter3_d_1568_1089" x="18.3242" y="36.623" width="18.7876" height="19.9766" filterUnits="userSpaceOnUse" color-interpolation-filters="sRGB">
<feFlood flood-opacity="0" result="BackgroundImageFix"/>
<feColorMatrix in="SourceAlpha" type="matrix" values="0 0 0 0 0 0 0 0 0 0 0 0 0 0 0 0 0 0 127 0" result="hardAlpha"/>
<feOffset dy="4"/>
<feGaussianBlur stdDeviation="2"/>
<feComposite in2="hardAlpha" operator="out"/>
<feColorMatrix type="matrix" values="0 0 0 0 0 0 0 0 0 0 0 0 0 0 0 0 0 0 0.25 0"/>
<feBlend mode="normal" in2="BackgroundImageFix" result="effect1_dropShadow_1568_1089"/>
<feBlend mode="normal" in="SourceGraphic" in2="effect1_dropShadow_1568_1089" result="shape"/>
</filter>
<filter id="filter4_d_1568_1089" x="14.5391" y="41.3125" width="18.7524" height="19.9258" filterUnits="userSpaceOnUse" color-interpolation-filters="sRGB">
<feFlood flood-opacity="0" result="BackgroundImageFix"/>
<feColorMatrix in="SourceAlpha" type="matrix" values="0 0 0 0 0 0 0 0 0 0 0 0 0 0 0 0 0 0 127 0" result="hardAlpha"/>
<feOffset dy="4"/>
<feGaussianBlur stdDeviation="2"/>
<feComposite in2="hardAlpha" operator="out"/>
<feColorMatrix type="matrix" values="0 0 0 0 0 0 0 0 0 0 0 0 0 0 0 0 0 0 0.25 0"/>
<feBlend mode="normal" in2="BackgroundImageFix" result="effect1_dropShadow_1568_1089"/>
<feBlend mode="normal" in="SourceGraphic" in2="effect1_dropShadow_1568_1089" result="shape"/>
</filter>
<filter id="filter5_d_1568_1089" x="28.5864" y="19.1836" width="17.0337" height="30.3613" filterUnits="userSpaceOnUse" color-interpolation-filters="sRGB">
<feFlood flood-opacity="0" result="BackgroundImageFix"/>
<feColorMatrix in="SourceAlpha" type="matrix" values="0 0 0 0 0 0 0 0 0 0 0 0 0 0 0 0 0 0 127 0" result="hardAlpha"/>
<feOffset dy="4"/>
<feGaussianBlur stdDeviation="2"/>
<feComposite in2="hardAlpha" operator="out"/>
<feColorMatrix type="matrix" values="0 0 0 0 0 0 0 0 0 0 0 0 0 0 0 0 0 0 0.25 0"/>
<feBlend mode="normal" in2="BackgroundImageFix" result="effect1_dropShadow_1568_1089"/>
<feBlend mode="normal" in="SourceGraphic" in2="effect1_dropShadow_1568_1089" result="shape"/>
</filter>
<filter id="filter6_d_1568_1089" x="24.8579" y="38.7305" width="24.7544" height="13.8457" filterUnits="userSpaceOnUse" color-interpolation-filters="sRGB">
<feFlood flood-opacity="0" result="BackgroundImageFix"/>
<feColorMatrix in="SourceAlpha" type="matrix" values="0 0 0 0 0 0 0 0 0 0 0 0 0 0 0 0 0 0 127 0" result="hardAlpha"/>
<feOffset dy="4"/>
<feGaussianBlur stdDeviation="2"/>
<feComposite in2="hardAlpha" operator="out"/>
<feColorMatrix type="matrix" values="0 0 0 0 0 0 0 0 0 0 0 0 0 0 0 0 0 0 0.25 0"/>
<feBlend mode="normal" in2="BackgroundImageFix" result="effect1_dropShadow_1568_1089"/>
<feBlend mode="normal" in="SourceGraphic" in2="effect1_dropShadow_1568_1089" result="shape"/>
</filter>
<linearGradient id="paint0_linear_1568_1089" x1="23.8718" y1="54.1668" x2="46.4481" y2="45.4451" gradientUnits="userSpaceOnUse">
<stop stop-color="#F9CC65"/>
<stop offset="1" stop-color="#DB3B39"/>
</linearGradient>
<linearGradient id="paint1_linear_1568_1089" x1="21.2865" y1="24.1211" x2="32.4708" y2="41.5718" gradientUnits="userSpaceOnUse">
<stop stop-color="#F9CC65"/>
<stop offset="1" stop-color="#DB3B39"/>
</linearGradient>
<linearGradient id="paint2_linear_1568_1089" x1="23.9435" y1="37.2109" x2="31.0485" y2="48.2967" gradientUnits="userSpaceOnUse">
<stop stop-color="#F9CC65"/>
<stop offset="1" stop-color="#DB3B39"/>
</linearGradient>
<linearGradient id="paint3_linear_1568_1089" x1="20.1583" y1="41.9004" x2="27.2301" y2="52.9343" gradientUnits="userSpaceOnUse">
<stop stop-color="#F9CC65"/>
<stop offset="1" stop-color="#DB3B39"/>
</linearGradient>
<linearGradient id="paint4_linear_1568_1089" x1="35.7596" y1="19.2328" x2="39.4235" y2="41.3335" gradientUnits="userSpaceOnUse">
<stop stop-color="#F9CC65"/>
<stop offset="1" stop-color="#DB3B39"/>
</linearGradient>
<linearGradient id="paint5_linear_1568_1089" x1="28.8631" y1="41.7421" x2="45.5372" y2="42.7365" gradientUnits="userSpaceOnUse">
<stop stop-color="#F9CC65"/>
<stop offset="1" stop-color="#DB3B39"/>
</linearGradient>
</defs>
</svg>
