<svg width="24" height="24" viewBox="0 0 24 24" fill="none" xmlns="http://www.w3.org/2000/svg">
<g clip-path="url(#clip0_721_1348)">
<path d="M20 3.29004C19.82 3.29004 19.64 3.36005 19.5 3.50005L3.50004 19.5C3.22004 19.78 3.22004 20.22 3.50004 20.5C3.64004 20.64 3.82004 20.7101 4.00004 20.7101C4.18004 20.7101 4.36004 20.64 4.50004 20.5L20.5 4.50005C20.78 4.22005 20.78 3.78005 20.5 3.50005C20.36 3.36005 20.18 3.29004 20 3.29004Z" fill="#222222"/>
<path d="M9.72 15.28L10.81 14.19C10.03 13.77 9.5 12.95 9.5 12C9.5 10.62 10.62 9.5 12 9.5C12.95 9.5 13.76 10.04 14.19 10.81L15.28 9.72C14.56 8.68 13.36 8 12 8C9.79 8 8 9.79 8 12C8 13.36 8.68 14.56 9.72 15.28Z" fill="#222222"/>
<path d="M14.4303 12.5704C14.2103 13.4904 13.4904 14.2103 12.5704 14.4303L11.1104 15.8904C11.4004 15.9604 11.6904 16.0004 12.0004 16.0004C14.2104 16.0004 16.0004 14.2104 16.0004 12.0004C16.0004 11.6904 15.9604 11.4004 15.8904 11.1104L14.4303 12.5704Z" fill="#222222"/>
<path d="M7.39956 17.6L8.48957 16.51C6.22957 15.25 4.53956 13.09 3.78956 12C4.89956 10.4 8.00956 6.5 12.0096 6.5C13.7896 6.5 15.3996 7.28 16.7296 8.28L17.7996 7.21001C16.2196 5.98001 14.2596 5 12.0096 5C7.03956 5 3.43957 9.81001 2.34957 11.46C2.12957 11.79 2.12957 12.22 2.34957 12.55C3.04957 13.62 4.84956 16.05 7.39956 17.6Z" fill="#222222"/>
<path d="M18.8697 8.12988L17.8097 9.18988C18.9197 10.2199 19.7497 11.3199 20.2197 11.9999C19.1097 13.5999 15.9997 17.4999 11.9997 17.4999C11.2597 17.4999 10.5397 17.3599 9.86972 17.1299L8.71973 18.2799C9.72973 18.7099 10.8297 18.9899 12.0097 18.9899C16.9797 18.9899 20.5797 14.1799 21.6697 12.5299C21.8897 12.1999 21.8897 11.7699 21.6697 11.4399C21.1797 10.7299 20.2197 9.39988 18.8697 8.12988Z" fill="#222222"/>
</g>
<defs>
<clipPath id="clip0_721_1348">
<rect width="24" height="24" fill="white"/>
</clipPath>
</defs>
</svg>
