<svg width="27" height="22" viewBox="0 0 27 22" fill="none" xmlns="http://www.w3.org/2000/svg">
<path fill-rule="evenodd" clip-rule="evenodd" d="M0 1.83333C0 1.3471 0.203188 0.880788 0.564865 0.536971C0.926543 0.193155 1.41708 0 1.92857 0H25.0714C25.5829 0 26.0735 0.193155 26.4351 0.536971C26.7968 0.880788 27 1.3471 27 1.83333C27 2.31956 26.7968 2.78588 26.4351 3.1297C26.0735 3.47351 25.5829 3.66667 25.0714 3.66667H1.92857C1.41708 3.66667 0.926543 3.47351 0.564865 3.1297C0.203188 2.78588 0 2.31956 0 1.83333ZM0 11C0 10.5138 0.203188 10.0475 0.564865 9.70364C0.926543 9.35982 1.41708 9.16667 1.92857 9.16667H25.0714C25.5829 9.16667 26.0735 9.35982 26.4351 9.70364C26.7968 10.0475 27 10.5138 27 11C27 11.4862 26.7968 11.9525 26.4351 12.2964C26.0735 12.6402 25.5829 12.8333 25.0714 12.8333H1.92857C1.41708 12.8333 0.926543 12.6402 0.564865 12.2964C0.203188 11.9525 0 11.4862 0 11ZM0 20.1667C0 19.6804 0.203188 19.2141 0.564865 18.8703C0.926543 18.5265 1.41708 18.3333 1.92857 18.3333H25.0714C25.5829 18.3333 26.0735 18.5265 26.4351 18.8703C26.7968 19.2141 27 19.6804 27 20.1667C27 20.6529 26.7968 21.1192 26.4351 21.463C26.0735 21.8068 25.5829 22 25.0714 22H1.92857C1.41708 22 0.926543 21.8068 0.564865 21.463C0.203188 21.1192 0 20.6529 0 20.1667Z" fill="black"/>
</svg>
