<svg width="164" height="86" viewBox="0 0 164 86" fill="none" xmlns="http://www.w3.org/2000/svg">
<g filter="url(#filter0_d_1562_1020)">
<path d="M35.9361 38.8871V35.3182H51.3037V38.8871H45.7905V53.5H41.4581V38.8871H35.9361ZM53.4499 53.5V35.3182H60.9605C62.3218 35.3182 63.4966 35.5638 64.485 36.055C65.4793 36.5404 66.2458 37.2388 66.7844 38.1502C67.323 39.0558 67.5923 40.13 67.5923 41.3729C67.5923 42.6335 67.3171 43.7048 66.7666 44.5866C66.2162 45.4626 65.435 46.1314 64.4229 46.593C63.4108 47.0488 62.2123 47.2766 60.8274 47.2766H56.0777V43.8143H60.0106C60.6735 43.8143 61.2269 43.7285 61.6708 43.5568C62.1206 43.3793 62.4609 43.1129 62.6917 42.7578C62.9225 42.3968 63.0379 41.9351 63.0379 41.3729C63.0379 40.8106 62.9225 40.346 62.6917 39.979C62.4609 39.6062 62.1206 39.328 61.6708 39.1445C61.2209 38.9551 60.6676 38.8604 60.0106 38.8604H57.8444V53.5H53.4499ZM63.686 45.1903L68.2137 53.5H63.4197L58.9808 45.1903H63.686ZM87.1635 44.4091C87.1635 46.4096 86.7788 48.1052 86.0094 49.4961C85.2399 50.887 84.1983 51.9434 82.8844 52.6655C81.5764 53.3875 80.1085 53.7486 78.4809 53.7486C76.8474 53.7486 75.3767 53.3846 74.0687 52.6566C72.7607 51.9286 71.7219 50.8722 70.9525 49.4872C70.189 48.0964 69.8073 46.4036 69.8073 44.4091C69.8073 42.4086 70.189 40.7129 70.9525 39.3221C71.7219 37.9312 72.7607 36.8748 74.0687 36.1527C75.3767 35.4306 76.8474 35.0696 78.4809 35.0696C80.1085 35.0696 81.5764 35.4306 82.8844 36.1527C84.1983 36.8748 85.2399 37.9312 86.0094 39.3221C86.7788 40.7129 87.1635 42.4086 87.1635 44.4091ZM82.6713 44.4091C82.6713 43.2254 82.5026 42.2251 82.1652 41.4084C81.8338 40.5916 81.3544 39.9731 80.727 39.5529C80.1056 39.1327 79.3569 38.9226 78.4809 38.9226C77.6109 38.9226 76.8622 39.1327 76.2349 39.5529C75.6075 39.9731 75.1251 40.5916 74.7878 41.4084C74.4563 42.2251 74.2906 43.2254 74.2906 44.4091C74.2906 45.5928 74.4563 46.593 74.7878 47.4098C75.1251 48.2266 75.6075 48.8451 76.2349 49.2653C76.8622 49.6855 77.6109 49.8956 78.4809 49.8956C79.3569 49.8956 80.1056 49.6855 80.727 49.2653C81.3544 48.8451 81.8338 48.2266 82.1652 47.4098C82.5026 46.593 82.6713 45.5928 82.6713 44.4091ZM97.1155 35.3182H101.448V47.8892C101.442 49.067 101.161 50.0968 100.605 50.9787C100.048 51.8546 99.2788 52.5353 98.2963 53.0206C97.3197 53.5059 96.1893 53.7486 94.905 53.7486C93.7686 53.7486 92.7358 53.5503 91.8066 53.1538C90.8833 52.7572 90.1464 52.1417 89.596 51.3072C89.0515 50.4727 88.7822 49.4044 88.7881 48.1023H93.1649C93.1826 48.5698 93.2714 48.9693 93.4312 49.3008C93.5969 49.6263 93.8248 49.8719 94.1148 50.0376C94.4048 50.2034 94.7511 50.2862 95.1535 50.2862C95.5737 50.2862 95.9289 50.1974 96.2189 50.0199C96.5089 49.8364 96.7279 49.5671 96.8758 49.212C97.0297 48.8569 97.1096 48.416 97.1155 47.8892V35.3182ZM108.14 53.5H103.417L109.551 35.3182H115.402L121.536 53.5H116.813L112.543 39.8991H112.401L108.14 53.5ZM107.509 46.3445H117.381V49.6825H107.509V46.3445ZM138.968 35.3182V53.5H135.239L128.004 43.0064H127.888V53.5H123.494V35.3182H127.276L134.431 45.794H134.582V35.3182H138.968ZM46.1268 61.7692C46.0676 61.1181 45.8042 60.6121 45.3366 60.2511C44.875 59.8841 44.2151 59.7006 43.3569 59.7006C42.7887 59.7006 42.3152 59.7746 41.9364 59.9226C41.5576 60.0705 41.2735 60.2747 41.0841 60.5352C40.8948 60.7897 40.7971 61.0826 40.7912 61.4141C40.7793 61.6863 40.8326 61.926 40.951 62.1332C41.0753 62.3403 41.2528 62.5238 41.4837 62.6836C41.7204 62.8375 42.0045 62.9736 42.3359 63.092C42.6674 63.2103 43.0402 63.3139 43.4545 63.4027L45.017 63.7578C45.9167 63.9531 46.7097 64.2135 47.3963 64.5391C48.0888 64.8646 48.6688 65.2522 49.1364 65.7021C49.6098 66.1519 49.9679 66.6697 50.2106 67.2557C50.4532 67.8416 50.5775 68.4986 50.5834 69.2266C50.5775 70.3748 50.2875 71.3602 49.7134 72.1829C49.1393 73.0056 48.3137 73.6359 47.2365 74.0739C46.1652 74.5118 44.872 74.7308 43.3569 74.7308C41.8358 74.7308 40.51 74.503 39.3796 74.0472C38.2492 73.5915 37.3703 72.899 36.7429 71.9698C36.1155 71.0406 35.793 69.8658 35.7752 68.4453H39.9833C40.0188 69.0312 40.1757 69.5195 40.4538 69.9102C40.732 70.3008 41.1137 70.5967 41.5991 70.7979C42.0903 70.9992 42.6585 71.0998 43.3036 71.0998C43.8955 71.0998 44.3985 71.0199 44.8128 70.8601C45.2331 70.7003 45.5556 70.4783 45.7805 70.1942C46.0054 69.9102 46.1208 69.5846 46.1268 69.2177C46.1208 68.8744 46.0143 68.5814 45.8072 68.3388C45.6 68.0902 45.2804 67.8771 44.8484 67.6996C44.4222 67.5161 43.8777 67.3474 43.2148 67.1935L41.315 66.7496C39.7406 66.3886 38.5007 65.8056 37.5952 65.0007C36.6896 64.1899 36.2398 63.0949 36.2457 61.7159C36.2398 60.5914 36.5417 59.6059 37.1513 58.7596C37.7609 57.9132 38.6043 57.2533 39.6815 56.7798C40.7586 56.3063 41.9867 56.0696 43.3658 56.0696C44.7744 56.0696 45.9966 56.3093 47.0323 56.7887C48.074 57.2622 48.8819 57.928 49.456 58.7862C50.0301 59.6444 50.323 60.6387 50.3349 61.7692H46.1268ZM59.7542 67.9659H63.3054L64.8146 69.8924L66.7944 72.1651L69.8395 75.9205H65.8622L63.7315 73.3725L62.4709 71.5614L59.7542 67.9659ZM69.9638 65.4091C69.9638 67.4096 69.5791 69.1052 68.8096 70.4961C68.0402 71.887 66.9986 72.9434 65.6846 73.6655C64.3766 74.3875 62.9088 74.7486 61.2812 74.7486C59.6477 74.7486 58.177 74.3846 56.869 73.6566C55.5609 72.9286 54.5222 71.8722 53.7528 70.4872C52.9893 69.0964 52.6076 67.4036 52.6076 65.4091C52.6076 63.4086 52.9893 61.7129 53.7528 60.3221C54.5222 58.9312 55.5609 57.8748 56.869 57.1527C58.177 56.4306 59.6477 56.0696 61.2812 56.0696C62.9088 56.0696 64.3766 56.4306 65.6846 57.1527C66.9986 57.8748 68.0402 58.9312 68.8096 60.3221C69.5791 61.7129 69.9638 63.4086 69.9638 65.4091ZM65.4716 65.4091C65.4716 64.2254 65.3029 63.2251 64.9655 62.4084C64.6341 61.5916 64.1547 60.9731 63.5273 60.5529C62.9059 60.1327 62.1572 59.9226 61.2812 59.9226C60.4112 59.9226 59.6625 60.1327 59.0351 60.5529C58.4078 60.9731 57.9254 61.5916 57.5881 62.4084C57.2566 63.2251 57.0909 64.2254 57.0909 65.4091C57.0909 66.5928 57.2566 67.593 57.5881 68.4098C57.9254 69.2266 58.4078 69.8451 59.0351 70.2653C59.6625 70.6855 60.4112 70.8956 61.2812 70.8956C62.1572 70.8956 62.9059 70.6855 63.5273 70.2653C64.1547 69.8451 64.6341 69.2266 64.9655 68.4098C65.3029 67.593 65.4716 66.5928 65.4716 65.4091ZM83.5535 56.3182H87.9392V68.0458C87.9392 69.4012 87.6166 70.5819 86.9715 71.5881C86.3264 72.5883 85.4267 73.3636 84.2726 73.9141C83.1185 74.4586 81.778 74.7308 80.251 74.7308C78.7062 74.7308 77.3568 74.4586 76.2027 73.9141C75.0485 73.3636 74.1519 72.5883 73.5127 71.5881C72.8735 70.5819 72.5539 69.4012 72.5539 68.0458V56.3182H76.9484V67.6641C76.9484 68.2914 77.0845 68.8507 77.3568 69.342C77.635 69.8332 78.0226 70.2179 78.5198 70.4961C79.0169 70.7743 79.594 70.9134 80.251 70.9134C80.9079 70.9134 81.482 70.7743 81.9733 70.4961C82.4704 70.2179 82.8581 69.8332 83.1363 69.342C83.4144 68.8507 83.5535 68.2914 83.5535 67.6641V56.3182ZM94.6264 74.5H89.9034L96.038 56.3182H101.888L108.023 74.5H103.3L99.0298 60.8991H98.8878L94.6264 74.5ZM93.9961 67.3445H103.868V70.6825H93.9961V67.3445ZM109.981 74.5V56.3182H117.491C118.853 56.3182 120.027 56.5638 121.016 57.055C122.01 57.5404 122.777 58.2388 123.315 59.1502C123.854 60.0558 124.123 61.13 124.123 62.3729C124.123 63.6335 123.848 64.7048 123.297 65.5866C122.747 66.4626 121.966 67.1314 120.954 67.593C119.942 68.0488 118.743 68.2766 117.358 68.2766H112.608V64.8143H116.541C117.204 64.8143 117.758 64.7285 118.202 64.5568C118.651 64.3793 118.992 64.1129 119.222 63.7578C119.453 63.3968 119.569 62.9351 119.569 62.3729C119.569 61.8106 119.453 61.346 119.222 60.979C118.992 60.6062 118.651 60.328 118.202 60.1445C117.752 59.9551 117.198 59.8604 116.541 59.8604H114.375V74.5H109.981ZM120.217 66.1903L124.744 74.5H119.95L115.512 66.1903H120.217ZM126.533 74.5V56.3182H139.211V59.8871H130.928V63.6158H138.563V67.1935H130.928V70.9311H139.211V74.5H126.533Z" fill="white"/>
</g>
<defs>
<filter id="filter0_d_1562_1020" x="0.775391" y="0.0703125" width="173.436" height="110.85" filterUnits="userSpaceOnUse" color-interpolation-filters="sRGB">
<feFlood flood-opacity="0" result="BackgroundImageFix"/>
<feColorMatrix in="SourceAlpha" type="matrix" values="0 0 0 0 0 0 0 0 0 0 0 0 0 0 0 0 0 0 127 0" result="hardAlpha"/>
<feOffset/>
<feGaussianBlur stdDeviation="17.5"/>
<feComposite in2="hardAlpha" operator="out"/>
<feColorMatrix type="matrix" values="0 0 0 0 0 0 0 0 0 0 0 0 0 0 0 0 0 0 0.3 0"/>
<feBlend mode="normal" in2="BackgroundImageFix" result="effect1_dropShadow_1562_1020"/>
<feBlend mode="normal" in="SourceGraphic" in2="effect1_dropShadow_1562_1020" result="shape"/>
</filter>
</defs>
</svg>
