<svg width="31" height="57" viewBox="0 0 31 57" fill="none" xmlns="http://www.w3.org/2000/svg">
<path d="M29.3063 14.9708L16.1813 1.84583C15.6417 1.30625 14.8979 1 14.125 1H3.91667C3.14312 1 2.40125 1.30729 1.85427 1.85427C1.30729 2.40125 1 3.14312 1 3.91667V14.125C1 14.8979 1.30625 15.6417 1.86042 16.1813L2.45833 16.7646C3.77083 15.9771 5.2875 15.5833 6.83333 15.5833C9.15398 15.5833 11.3796 16.5052 13.0205 18.1462C14.6615 19.7871 15.5833 22.0127 15.5833 24.3333C15.5833 25.8792 15.175 27.3813 14.3875 28.7083L14.9708 29.2917C15.5104 29.8458 16.2688 30.1667 17.0417 30.1667C17.8146 30.1667 18.5583 29.8604 19.0979 29.3063L29.3063 19.0979C29.8604 18.5583 30.1667 17.8146 30.1667 17.0417C30.1667 16.2688 29.8604 15.525 29.3063 14.9708ZM6.10417 8.29167C5.52401 8.29167 4.96761 8.0612 4.55737 7.65096C4.14713 7.24073 3.91667 6.68433 3.91667 6.10417C3.91667 5.52401 4.14713 4.96761 4.55737 4.55737C4.96761 4.14713 5.52401 3.91667 6.10417 3.91667C6.68433 3.91667 7.24073 4.14713 7.65096 4.55737C8.0612 4.96761 8.29167 5.52401 8.29167 6.10417C8.29167 6.68433 8.0612 7.24073 7.65096 7.65096C7.24073 8.0612 6.68433 8.29167 6.10417 8.29167Z" stroke="black" stroke-width="1.5"/>
<path d="M8.29167 25.7917H12.6667V22.875H8.29167V18.5H5.375V22.875H1V25.7917H5.375V30.1667H8.29167V25.7917Z" fill="#111111"/>
<path d="M7.82955 44.5385C7.77841 44.1067 7.57102 43.7715 7.20739 43.5328C6.84375 43.2942 6.39773 43.1749 5.86932 43.1749C5.48295 43.1749 5.14489 43.2374 4.85511 43.3624C4.56818 43.4874 4.34375 43.6593 4.18182 43.878C4.02273 44.0968 3.94318 44.3453 3.94318 44.6238C3.94318 44.8567 3.99858 45.057 4.10938 45.2246C4.22301 45.3894 4.3679 45.5272 4.54403 45.638C4.72017 45.7459 4.90483 45.8354 5.09801 45.9064C5.29119 45.9746 5.46875 46.03 5.63068 46.0726L6.51705 46.3113C6.74432 46.3709 6.99716 46.4533 7.27557 46.5584C7.55682 46.6635 7.82528 46.807 8.08097 46.9888C8.33949 47.1678 8.55256 47.3979 8.72017 47.6792C8.88778 47.9604 8.97159 48.3056 8.97159 48.7147C8.97159 49.1863 8.84801 49.6124 8.60085 49.9931C8.35653 50.3738 7.99858 50.6763 7.52699 50.9007C7.05824 51.1252 6.48864 51.2374 5.81818 51.2374C5.19318 51.2374 4.65199 51.1365 4.1946 50.9348C3.74006 50.7331 3.3821 50.4519 3.12074 50.0911C2.86222 49.7303 2.71591 49.3113 2.68182 48.834H3.77273C3.80114 49.1635 3.91193 49.4363 4.10511 49.6522C4.30114 49.8652 4.5483 50.0243 4.84659 50.1294C5.14773 50.2317 5.47159 50.2828 5.81818 50.2828C6.22159 50.2828 6.58381 50.2175 6.90483 50.0868C7.22585 49.9533 7.48011 49.7686 7.66761 49.5328C7.85511 49.2942 7.94886 49.0158 7.94886 48.6976C7.94886 48.4078 7.8679 48.1721 7.70597 47.9902C7.54403 47.8084 7.33097 47.6607 7.06676 47.5471C6.80256 47.4334 6.51705 47.334 6.21023 47.2488L5.13636 46.9419C4.45455 46.7459 3.91477 46.4661 3.51705 46.1025C3.11932 45.7388 2.92045 45.263 2.92045 44.6749C2.92045 44.1863 3.05256 43.7601 3.31676 43.3965C3.58381 43.03 3.94176 42.7459 4.39062 42.5442C4.84233 42.3397 5.34659 42.2374 5.90341 42.2374C6.46591 42.2374 6.96591 42.3382 7.40341 42.5399C7.84091 42.7388 8.1875 43.0115 8.44318 43.3581C8.7017 43.7047 8.83807 44.0982 8.85227 44.5385H7.82955ZM13.3171 51.2203C12.6864 51.2203 12.1424 51.0811 11.685 50.8027C11.2305 50.5215 10.8796 50.1294 10.6325 49.6266C10.3881 49.1209 10.266 48.5328 10.266 47.8624C10.266 47.1919 10.3881 46.601 10.6325 46.0897C10.8796 45.5755 11.2234 45.1749 11.6637 44.888C12.1069 44.5982 12.6239 44.4533 13.2148 44.4533C13.5558 44.4533 13.8924 44.5101 14.2248 44.6238C14.5572 44.7374 14.8597 44.9221 15.1325 45.1777C15.4052 45.4306 15.6225 45.7658 15.7844 46.1834C15.9464 46.601 16.0273 47.1152 16.0273 47.726V48.1522H10.9819V47.2828H15.0046C15.0046 46.9135 14.9308 46.584 14.783 46.2942C14.6381 46.0044 14.4308 45.7757 14.1609 45.6081C13.8938 45.4405 13.5785 45.3567 13.2148 45.3567C12.8143 45.3567 12.4677 45.4561 12.1751 45.655C11.8853 45.851 11.6623 46.1067 11.506 46.4221C11.3498 46.7374 11.2717 47.0755 11.2717 47.4363V48.0158C11.2717 48.5101 11.3569 48.9292 11.5273 49.2729C11.7006 49.6138 11.9407 49.8738 12.2475 50.0527C12.5543 50.2289 12.9109 50.3169 13.3171 50.3169C13.5813 50.3169 13.82 50.28 14.033 50.2061C14.2489 50.1294 14.435 50.0158 14.5913 49.8652C14.7475 49.7118 14.8683 49.5215 14.9535 49.2942L15.9251 49.5669C15.8228 49.8965 15.6509 50.1863 15.4094 50.4363C15.168 50.6834 14.8697 50.8766 14.5146 51.0158C14.1594 51.1522 13.7603 51.2203 13.3171 51.2203ZM18.5629 42.3567V51.084H17.5572V42.3567H18.5629ZM21.4105 42.3567V51.084H20.4048V42.3567H21.4105Z" fill="#737373"/>
</svg>
