<svg width="36" height="56" viewBox="0 0 36 56" fill="none" xmlns="http://www.w3.org/2000/svg">
<path d="M6.2983 43.5385C6.24716 43.1067 6.03977 42.7715 5.67614 42.5328C5.3125 42.2942 4.86648 42.1749 4.33807 42.1749C3.9517 42.1749 3.61364 42.2374 3.32386 42.3624C3.03693 42.4874 2.8125 42.6593 2.65057 42.878C2.49148 43.0968 2.41193 43.3453 2.41193 43.6238C2.41193 43.8567 2.46733 44.057 2.57812 44.2246C2.69176 44.3894 2.83665 44.5272 3.01278 44.638C3.18892 44.7459 3.37358 44.8354 3.56676 44.9064C3.75994 44.9746 3.9375 45.03 4.09943 45.0726L4.9858 45.3113C5.21307 45.3709 5.46591 45.4533 5.74432 45.5584C6.02557 45.6635 6.29403 45.807 6.54972 45.9888C6.80824 46.1678 7.02131 46.3979 7.18892 46.6792C7.35653 46.9604 7.44034 47.3056 7.44034 47.7147C7.44034 48.1863 7.31676 48.6124 7.0696 48.9931C6.82528 49.3738 6.46733 49.6763 5.99574 49.9007C5.52699 50.1252 4.95739 50.2374 4.28693 50.2374C3.66193 50.2374 3.12074 50.1365 2.66335 49.9348C2.20881 49.7331 1.85085 49.4519 1.58949 49.0911C1.33097 48.7303 1.18466 48.3113 1.15057 47.834H2.24148C2.26989 48.1635 2.38068 48.4363 2.57386 48.6522C2.76989 48.8652 3.01705 49.0243 3.31534 49.1294C3.61648 49.2317 3.94034 49.2828 4.28693 49.2828C4.69034 49.2828 5.05256 49.2175 5.37358 49.0868C5.6946 48.9533 5.94886 48.7686 6.13636 48.5328C6.32386 48.2942 6.41761 48.0158 6.41761 47.6976C6.41761 47.4078 6.33665 47.1721 6.17472 46.9902C6.01278 46.8084 5.79972 46.6607 5.53551 46.5471C5.27131 46.4334 4.9858 46.334 4.67898 46.2488L3.60511 45.9419C2.9233 45.7459 2.38352 45.4661 1.9858 45.1025C1.58807 44.7388 1.3892 44.263 1.3892 43.6749C1.3892 43.1863 1.52131 42.7601 1.78551 42.3965C2.05256 42.03 2.41051 41.7459 2.85938 41.5442C3.31108 41.3397 3.81534 41.2374 4.37216 41.2374C4.93466 41.2374 5.43466 41.3382 5.87216 41.5399C6.30966 41.7388 6.65625 42.0115 6.91193 42.3581C7.17045 42.7047 7.30682 43.0982 7.32102 43.5385H6.2983ZM10.9677 50.2374C10.5529 50.2374 10.1765 50.1593 9.83842 50.003C9.50036 49.8439 9.23189 49.6152 9.03303 49.3169C8.83416 49.0158 8.73473 48.6522 8.73473 48.226C8.73473 47.851 8.80859 47.5471 8.95632 47.3141C9.10405 47.0783 9.30149 46.8936 9.54865 46.7601C9.79581 46.6266 10.0685 46.5272 10.3668 46.4618C10.668 46.3936 10.9705 46.3397 11.2745 46.2999C11.6722 46.2488 11.9947 46.2104 12.2418 46.1848C12.4918 46.1564 12.6737 46.1096 12.7873 46.0442C12.9038 45.9789 12.962 45.8652 12.962 45.7033V45.6692C12.962 45.2488 12.8469 44.9221 12.6168 44.6891C12.3896 44.4561 12.0444 44.3397 11.5813 44.3397C11.1012 44.3397 10.7248 44.4448 10.4521 44.655C10.1793 44.8652 9.98757 45.0897 9.87678 45.3283L8.92223 44.9874C9.09268 44.5897 9.31996 44.28 9.60405 44.0584C9.89098 43.834 10.2035 43.6777 10.5415 43.5897C10.8825 43.4988 11.2177 43.4533 11.5472 43.4533C11.7575 43.4533 11.9989 43.4789 12.2717 43.53C12.5472 43.5783 12.8129 43.6792 13.0685 43.8326C13.3271 43.986 13.5415 44.2175 13.712 44.5272C13.8825 44.8368 13.9677 45.2516 13.9677 45.7715V50.084H12.962V49.1976H12.9109C12.8427 49.3397 12.729 49.4917 12.57 49.6536C12.4109 49.8155 12.1992 49.9533 11.935 50.0669C11.6708 50.1806 11.3484 50.2374 10.9677 50.2374ZM11.1211 49.334C11.5188 49.334 11.854 49.2559 12.1268 49.0996C12.4023 48.9434 12.6097 48.7417 12.7489 48.4945C12.891 48.2473 12.962 47.9874 12.962 47.7147V46.7942C12.9194 46.8453 12.8256 46.8922 12.6808 46.9348C12.5387 46.9746 12.3739 47.0101 12.1864 47.0414C12.0018 47.0698 11.8214 47.0953 11.6452 47.1181C11.4719 47.138 11.3313 47.155 11.2234 47.1692C10.962 47.2033 10.7177 47.2587 10.4904 47.3354C10.266 47.4093 10.0842 47.5215 9.94496 47.6721C9.80859 47.8198 9.74041 48.0215 9.74041 48.2772C9.74041 48.6266 9.86967 48.8908 10.1282 49.0698C10.3896 49.2459 10.7205 49.334 11.1211 49.334ZM20.9212 43.5385L18.5007 50.084H17.478L15.0575 43.5385H16.1484L17.9553 48.7544H18.0234L19.8303 43.5385H20.9212ZM24.7585 50.2203C24.1278 50.2203 23.5838 50.0811 23.1264 49.8027C22.6719 49.5215 22.321 49.1294 22.0739 48.6266C21.8295 48.1209 21.7074 47.5328 21.7074 46.8624C21.7074 46.1919 21.8295 45.601 22.0739 45.0897C22.321 44.5755 22.6648 44.1749 23.1051 43.888C23.5483 43.5982 24.0653 43.4533 24.6562 43.4533C24.9972 43.4533 25.3338 43.5101 25.6662 43.6238C25.9986 43.7374 26.3011 43.9221 26.5739 44.1777C26.8466 44.4306 27.0639 44.7658 27.2259 45.1834C27.3878 45.601 27.4688 46.1152 27.4688 46.726V47.1522H22.4233V46.2828H26.446C26.446 45.9135 26.3722 45.584 26.2244 45.2942C26.0795 45.0044 25.8722 44.7757 25.6023 44.6081C25.3352 44.4405 25.0199 44.3567 24.6562 44.3567C24.2557 44.3567 23.9091 44.4561 23.6165 44.655C23.3267 44.851 23.1037 45.1067 22.9474 45.4221C22.7912 45.7374 22.7131 46.0755 22.7131 46.4363V47.0158C22.7131 47.5101 22.7983 47.9292 22.9688 48.2729C23.142 48.6138 23.3821 48.8738 23.6889 49.0527C23.9957 49.2289 24.3523 49.3169 24.7585 49.3169C25.0227 49.3169 25.2614 49.28 25.4744 49.2061C25.6903 49.1294 25.8764 49.0158 26.0327 48.8652C26.1889 48.7118 26.3097 48.5215 26.3949 48.2942L27.3665 48.5669C27.2642 48.8965 27.0923 49.1863 26.8509 49.4363C26.6094 49.6834 26.3111 49.8766 25.956 50.0158C25.6009 50.1522 25.2017 50.2203 24.7585 50.2203ZM31.4702 50.2203C30.9247 50.2203 30.4432 50.0826 30.0256 49.807C29.608 49.5286 29.2813 49.1365 29.0455 48.6309C28.8097 48.1223 28.6918 47.5215 28.6918 46.8283C28.6918 46.1408 28.8097 45.5442 29.0455 45.0385C29.2813 44.5328 29.6094 44.1422 30.0298 43.8667C30.4503 43.5911 30.9361 43.4533 31.4872 43.4533C31.9134 43.4533 32.25 43.5243 32.4972 43.6664C32.7472 43.8056 32.9375 43.9647 33.0682 44.1436C33.2017 44.3198 33.3054 44.4647 33.3793 44.5783H33.4645V41.3567H34.4702V50.084H33.4986V49.0783H33.3793C33.3054 49.1976 33.2003 49.3482 33.0639 49.53C32.9276 49.709 32.733 49.8695 32.4801 50.0115C32.2273 50.1507 31.8906 50.2203 31.4702 50.2203ZM31.6065 49.3169C32.0099 49.3169 32.3509 49.2118 32.6293 49.0016C32.9077 48.7885 33.1193 48.4945 33.2642 48.1195C33.4091 47.7417 33.4815 47.3056 33.4815 46.8113C33.4815 46.3226 33.4105 45.8951 33.2685 45.5286C33.1264 45.1593 32.9162 44.8723 32.6378 44.6678C32.3594 44.4604 32.0156 44.3567 31.6065 44.3567C31.1804 44.3567 30.8253 44.4661 30.5412 44.6848C30.2599 44.9007 30.0483 45.1948 29.9062 45.5669C29.767 45.9363 29.6974 46.351 29.6974 46.8113C29.6974 47.2772 29.7685 47.7005 29.9105 48.0811C30.0554 48.459 30.2685 48.7601 30.5497 48.9846C30.8338 49.2061 31.1861 49.3169 31.6065 49.3169Z" fill="#737373"/>
<path d="M17.584 27.084C17.435 27.0817 17.2891 27.0421 17.1599 26.9691C16.9991 26.8973 13.3727 24.8728 9.68776 21.6278C4.64295 17.1623 2.08399 12.7255 2.08399 8.41798C2.08266 6.63578 2.66362 4.90017 3.74147 3.46627C4.81933 2.03237 6.33721 0.975822 8.07201 0.451929C9.80681 -0.0719652 11.667 -0.0355679 13.3792 0.555771C15.0913 1.14711 16.5652 2.2622 17.584 3.73712C18.6028 2.2622 20.0766 1.14711 21.7888 0.555771C23.501 -0.0355679 25.3612 -0.0719652 27.096 0.451929C28.8308 0.975822 30.3486 2.03237 31.4265 3.46627C32.5043 4.90017 33.0853 6.63578 33.084 8.41798C33.084 12.7255 30.525 17.1623 25.4802 21.6278C21.7953 24.8728 18.1689 26.8973 18.008 26.9691C17.8789 27.0421 17.733 27.0817 17.584 27.084ZM10.5651 1.81309C8.78116 1.81309 7.07027 2.50896 5.80882 3.74761C4.54738 4.98627 3.8387 6.66625 3.8387 8.41798C3.8387 16.6454 15.2151 23.8246 17.584 25.2174C19.9529 23.8246 31.3293 16.6454 31.3293 8.41798C31.3327 6.88861 30.7955 5.40548 29.8093 4.2217C28.8232 3.03791 27.4493 2.22685 25.922 1.92691C24.3948 1.62698 22.8088 1.85677 21.4349 2.57706C20.0609 3.29736 18.9841 4.46352 18.3882 5.87653C18.3253 6.03573 18.2148 6.17253 18.0713 6.26899C17.9278 6.36545 17.7579 6.41707 17.584 6.41707C17.4101 6.41707 17.2402 6.36545 17.0967 6.26899C16.9532 6.17253 16.8427 6.03573 16.7797 5.87653C16.2684 4.6722 15.4053 3.64356 14.2993 2.92038C13.1933 2.19721 11.8939 1.8119 10.5651 1.81309Z" fill="black"/>
</svg>
